<?xml version="1.0" encoding="utf-8"?>
<!-- Generator: Adobe Illustrator 24.2.0, SVG Export Plug-In . SVG Version: 6.00 Build 0)  -->
<svg version="1.1" id="Capa_1" xmlns="http://www.w3.org/2000/svg" xmlns:xlink="http://www.w3.org/1999/xlink" x="0px" y="0px"
	 viewBox="0 0 145 70.2" style="enable-background:new 0 0 145 70.2;" xml:space="preserve">
<style type="text/css">
	.st0{display:none;}
	.st1{display:inline;fill:#FFFFFF;}
	.st2{fill:#848584;}
	.st3{fill:#C82B2C;}
	.st4{fill:#231F20;}
	.st5{display:inline;fill:none;stroke:#F1F2F2;stroke-miterlimit:10;}
</style>
<g id="Capa_2_1_" class="st0">
	<rect x="-2391.5" y="-147.1" class="st1" width="3296" height="656.8"/>
</g>
<g id="Capa_1_1_">
	<g>
		<polygon class="st2" points="11.4,48 12.5,48 12.5,56.6 11.3,56.6 11.3,49.9 8.7,53.2 8.4,53.2 5.8,49.9 5.8,56.6 4.5,56.6 
			4.5,48 5.7,48 8.6,51.5 		"/>
		<polygon class="st2" points="31.9,48 36.8,48 36.8,49.1 33.1,49.1 33.1,51.7 36.7,51.7 36.7,52.8 33.1,52.8 33.1,55.5 36.9,55.5 
			36.9,56.6 31.9,56.6 		"/>
		<polygon class="st2" points="64.6,48 69.4,48 69.4,49.1 65.8,49.1 65.8,51.7 69.3,51.7 69.3,52.8 65.8,52.8 65.8,55.5 69.6,55.5 
			69.6,56.6 64.6,56.6 		"/>
		<polygon class="st2" points="76.9,48 78.1,48 78.1,55.4 82,55.4 82,56.6 76.9,56.6 		"/>
		<path class="st2" d="M86.7,47.9h0.9l3.9,8.6h-1.3L89,54h-3.7l-1.1,2.6H83L86.7,47.9z M88.5,52.9l-1.4-3.1l-1.3,3.1H88.5z"/>
		<path class="st2" d="M106.1,47.9h0.9l3.9,8.6h-1.3l-1.1-2.6h-3.7l-1.1,2.6h-1.3L106.1,47.9z M107.9,52.9l-1.4-3.1l-1.3,3.1H107.9z
			"/>
		<polygon class="st2" points="119.3,48 126.5,48 126.5,49.1 123.5,49.1 123.5,56.6 122.3,56.6 122.3,49.1 119.3,49.1 		"/>
		<polygon class="st2" points="128.6,48 133.5,48 133.5,49.1 129.9,49.1 129.9,51.7 133.4,51.7 133.4,52.8 129.9,52.8 129.9,55.5 
			133.6,55.5 133.6,56.6 128.6,56.6 		"/>
		<polygon class="st2" points="15.3,60.2 16.1,60.2 16.1,65.7 15.4,65.7 11.7,61.5 11.7,65.7 10.9,65.7 10.9,60.2 11.6,60.2 
			15.3,64.5 		"/>
		<rect x="17.9" y="60.2" class="st2" width="0.8" height="5.6"/>
		<polygon class="st2" points="24,60.2 24.8,60.2 22.5,65.7 22.3,65.7 19.9,60.2 20.7,60.2 22.4,64.1 		"/>
		<polygon class="st2" points="26,60.2 26,65.7 29.3,65.7 29.3,65 26.8,65 26.8,63.3 29.1,63.3 29.1,62.6 26.8,62.6 26.8,60.9 
			29.2,60.9 29.2,60.2 		"/>
		<rect x="40.6" y="60.2" class="st2" width="0.8" height="5.6"/>
		<path class="st2" d="M51.3,60.1h0.6l2.5,5.6h-0.8l-0.7-1.6h-2.4l-0.7,1.6h-0.8L51.3,60.1z M52.4,63.4l-0.9-2l-0.8,2H52.4z"/>
		<polygon class="st2" points="71.8,60.2 71.8,65.7 75,65.7 75,65 72.6,65 72.6,63.3 74.9,63.3 74.9,62.6 72.6,62.6 72.6,60.9 
			75,60.9 75,60.2 		"/>
		<path class="st2" d="M93.9,60.1h0.6l2.5,5.6h-0.8l-0.7-1.6h-2.4l-0.7,1.6h-0.8L93.9,60.1z M95.1,63.4l-0.9-2l-0.8,2H95.1z"/>
		<path class="st2" d="M106.2,60.1h0.6l2.5,5.6h-0.8l-0.7-1.6h-2.4l-0.7,1.6h-0.8L106.2,60.1z M107.4,63.4l-0.9-2l-0.8,2H107.4z"/>
		<polygon class="st2" points="110.5,60.2 110.5,65.7 113.8,65.7 113.8,65 111.3,65 111.3,60.2 		"/>
		<path class="st2" d="M116.9,60.1h0.6l2.5,5.6h-0.8l-0.7-1.6H116l-0.7,1.6h-0.8L116.9,60.1z M118,63.4l-0.9-2l-0.8,2H118z"/>
		<path class="st2" d="M125.5,60.1h0.6l2.5,5.6h-0.8l-0.8-1.6h-2.4l-0.7,1.6h-0.8L125.5,60.1z M126.7,63.4l-0.9-2l-0.8,2H126.7z"/>
		<path class="st2" d="M137.1,60.1h0.6l2.5,5.6h-0.8l-0.7-1.6h-2.4l-0.7,1.6h-0.8L137.1,60.1z M138.3,63.4l-0.9-2l-0.8,2H138.3z"/>
		<path class="st3" d="M126.7,32.8c-2.4,1.9-6.7,5.1-10.3,5.1c-2.7,0-5.1-1.9-5.1-5.2c0-6.1,7.4-8.6,12.5-9.4l2.8-0.4V32.8z
			 M142,37.1c-1.1,0.8-3.3,2-5,2c-2.1,0-2.8-2.2-2.8-4.9V14.8c0-8.9-2.3-12.1-10.8-12.1c-7.8,0-13.5,2.7-15.8,4
			c0.1,0.1,0.2,0.2,0.3,0.3c1.7,1.9,2.6,3.6,3.1,6c0,0,2.6-5.2,7.1-6.8c0.3-0.1,0.7-0.2,1-0.3c0.5-0.1,1.1-0.2,1.6-0.2
			c3.4,0,5.1,2.3,5.7,5.4c0.4,2.4,0.4,7.3,0.4,9l-3.1,0.4c-5.8,0.8-12.1,2.7-16.1,5.9c-2.6,2-4.2,4.6-4.2,7.8c0,2.1,0.7,4,2.1,5.5
			c1.6,1.8,4.1,3,7.4,3c5.6,0,9.6-2.9,11.8-5.2c0.8-0.8,1.8-1.8,2.3-2.4v1.6c0,4.2,2.7,6,6.2,6c4,0,7.4-2.4,8.8-3.7L142,37.1
			L142,37.1z"/>
		<path class="st4" d="M95.6,40c-11.9,0-12.4-12.1-12.4-15c0,0,0,0,0,0v-0.6l0-8.3c2.4,9.8,19.6,9.8,19.6,18.2
			C102.8,37.8,99.8,40,95.6,40 M89.2,11.3C89.2,8.7,91,6,95.7,6c1.8,0,7.6,0.4,7.8,7h3.5h3.9c-0.5-2.3-1.4-4.1-3.1-6
			c-0.1-0.1-0.2-0.2-0.3-0.3c-1-0.9-2.2-1.8-3.8-2.5c-1.8-0.9-4.1-1.6-6.6-1.6c-7.9,0-12.7,3.8-13.9,8.7v-0.7c0.1-5.1,0.7-7,0.7-7
			l-0.3-0.2c0,0-4.2,1.7-11.6,3v2.3h2.6c2.3,0,2.3,2.1,2.3,5.6v13.6c-0.1,2.7-0.6,3.7-2,5.4c-3,3.1-6.3,4.5-9.2,4.5
			c-3.2,0-5.3-1.7-5.3-7.9V12c0-4.3-3.1-6.6-4.3-7.2c0,0,0,0,0,0c-1.2-0.7-2.7-1-4.3-1c-3.8,0-7.3,1.6-10,4c-1.1,0.8-4,3.8-4.2,4
			c-0.4-4.3-3.4-8-8.1-8c-3.9,0-7.4,1.7-10.1,4l0,0c-1,0.8-3.5,3.5-3.9,3.9c0.3-6.8,0.9-8.8,0.9-8.8l-0.2-0.2c0,0-5.6,2.8-13.2,4.5
			v1.6h4.1c2.2,0,2.3,2.1,2.3,5.6L9.3,35.5c0,2.9-1.6,4.4-5,4.9v1.8H21v-1.8l-5.2-0.6V16.2c0.4-2,2-3.5,2.9-4.2
			c2.7-2,5.7-3.2,8.2-3.2c2.9,0,4.4,1.7,4.4,7.9v17.6c0,3.6-0.5,6-4.4,6v1.9h16.2v-1.8l-5.3-0.6V16.9c0-4.8,7.9-8.2,11.4-8.2
			c2.9,0,4.5,1.7,4.5,7.9v15.2c0,5.8,2,8.6,4.6,9.9h0c0.3,0.1,0.5,0.3,0.8,0.4c0.2,0.1,0.4,0.1,0.5,0.2c0.9,0.3,2,0.4,3.2,0.4
			c4.5,0,9.8-2.5,14.6-8.3c1.8,3.2,3.7,4.4,5.3,5.4c1.4,0.8,2.9,1.4,3.3,1.6c3.9,1.4,6.9,1.4,9.1,1.4c4.3,0,7.8-1.1,10.3-3.1
			c0,0,0,0,0,0c-1.3-1.5-2.1-3.4-2.1-5.5c0-3.2,1.6-5.7,4.2-7.8c-0.4-0.5-0.6-0.8-0.6-0.8C101.9,18.9,89.2,18.5,89.2,11.3"/>
		<path class="st2" d="M21.3,48h1.2v4.9c0,0.7-0.1,1.2-0.2,1.5c-0.1,0.3-0.2,0.6-0.3,0.8c-0.2,0.2-0.3,0.4-0.5,0.6
			c-0.7,0.6-1.6,0.9-2.7,0.9c-1.1,0-2-0.3-2.7-0.9c-0.2-0.2-0.4-0.4-0.5-0.6s-0.3-0.5-0.3-0.8c-0.1-0.3-0.1-0.8-0.1-1.5V48h1.2v4.9
			c0,0.8,0.1,1.4,0.3,1.7c0.2,0.3,0.5,0.6,0.8,0.8c0.4,0.2,0.8,0.3,1.3,0.3c0.7,0,1.3-0.2,1.8-0.6c0.3-0.2,0.4-0.4,0.5-0.7
			c0.1-0.3,0.2-0.8,0.2-1.4C21.3,52.9,21.3,48,21.3,48z"/>
		<path class="st2" d="M27.3,53l-0.9-0.6c-0.6-0.3-1-0.7-1.3-1.1c-0.3-0.3-0.4-0.7-0.4-1.2c0-0.7,0.2-1.2,0.7-1.6
			c0.5-0.4,1.1-0.6,1.8-0.6c0.7,0,1.4,0.2,2,0.6v1.4c-0.6-0.6-1.3-0.9-2-0.9c-0.4,0-0.7,0.1-1,0.3c-0.3,0.2-0.4,0.4-0.4,0.7
			c0,0.3,0.1,0.5,0.3,0.7c0.2,0.2,0.5,0.5,0.9,0.7L28,52c1,0.6,1.6,1.4,1.6,2.4c0,0.7-0.2,1.3-0.7,1.7c-0.5,0.4-1.1,0.7-1.8,0.7
			c-0.8,0-1.6-0.3-2.3-0.8v-1.6c0.7,0.8,1.4,1.3,2.3,1.3c0.4,0,0.7-0.1,1-0.3c0.3-0.2,0.4-0.5,0.4-0.8C28.5,53.9,28.1,53.4,27.3,53"
			/>
		<path class="st2" d="M43.4,47.9c1.3,0,2.4,0.4,3.3,1.3C47.6,50,48,51,48,52.3c0,1.3-0.4,2.3-1.3,3.2c-0.9,0.8-2,1.2-3.4,1.2
			c-1.3,0-2.4-0.4-3.2-1.2c-0.9-0.8-1.3-1.9-1.3-3.1c0-1.3,0.4-2.3,1.3-3.2C40.9,48.3,42,47.9,43.4,47.9 M43.4,49
			c-1,0-1.8,0.3-2.4,0.9c-0.6,0.6-0.9,1.4-0.9,2.3c0,0.9,0.3,1.7,0.9,2.3c0.6,0.6,1.4,0.9,2.4,0.9s1.8-0.3,2.4-0.9
			c0.6-0.6,1-1.4,1-2.3c0-0.9-0.3-1.7-1-2.3C45.1,49.3,44.4,49,43.4,49"/>
		<path class="st2" d="M54.6,56.6V48h2.9c1.2,0,2.1,0.2,2.8,0.5c0.7,0.3,1.2,0.9,1.6,1.5s0.6,1.4,0.6,2.2c0,0.6-0.1,1.1-0.3,1.7
			c-0.2,0.5-0.5,1-0.9,1.4c-0.4,0.4-0.9,0.7-1.5,0.9c-0.3,0.1-0.6,0.2-0.9,0.3c-0.3,0.1-0.8,0.1-1.6,0.1L54.6,56.6L54.6,56.6z
			 M57.4,49.1h-1.5v6.4h1.6c0.6,0,1.1,0,1.4-0.1c0.3-0.1,0.6-0.2,0.9-0.3c0.2-0.1,0.4-0.3,0.6-0.5c0.6-0.6,0.9-1.4,0.9-2.3
			c0-0.9-0.3-1.7-0.9-2.3c-0.2-0.2-0.5-0.4-0.8-0.5c-0.3-0.1-0.6-0.2-0.9-0.3C58.4,49.1,58,49.1,57.4,49.1"/>
		<path class="st2" d="M95.5,53l-0.9-0.6c-0.6-0.3-1-0.7-1.3-1.1c-0.3-0.3-0.4-0.7-0.4-1.2c0-0.7,0.2-1.2,0.7-1.6
			c0.5-0.4,1.1-0.6,1.8-0.6c0.7,0,1.4,0.2,2,0.6v1.4c-0.6-0.6-1.3-0.9-2-0.9c-0.4,0-0.7,0.1-1,0.3C94.2,49.4,94,49.7,94,50
			c0,0.3,0.1,0.5,0.3,0.7c0.2,0.2,0.5,0.5,0.9,0.7l0.9,0.6c1,0.6,1.6,1.4,1.6,2.4c0,0.7-0.2,1.3-0.7,1.7c-0.5,0.4-1.1,0.7-1.8,0.7
			c-0.9,0-1.6-0.3-2.3-0.8v-1.6c0.7,0.8,1.4,1.3,2.3,1.3c0.4,0,0.7-0.1,1-0.3s0.4-0.5,0.4-0.8C96.6,53.9,96.2,53.4,95.5,53"/>
		<path class="st2" d="M112.7,56.6V48h2.1c0.9,0,1.6,0.2,2.1,0.7c0.5,0.4,0.8,1,0.8,1.7c0,0.5-0.1,0.9-0.4,1.3
			c-0.3,0.4-0.6,0.6-1.1,0.8c0.3,0.2,0.5,0.4,0.8,0.7c0.3,0.3,0.6,0.8,1.1,1.6c0.3,0.5,0.5,0.9,0.7,1.1l0.5,0.6h-1.5l-0.4-0.6
			c0,0,0-0.1-0.1-0.1l-0.2-0.3l-0.4-0.6l-0.4-0.7c-0.3-0.3-0.5-0.6-0.7-0.8c-0.2-0.2-0.4-0.4-0.6-0.4c-0.2-0.1-0.5-0.2-0.9-0.2H114
			v3.8L112.7,56.6L112.7,56.6z M114.3,49h-0.4v2.7h0.5c0.6,0,1-0.1,1.3-0.2c0.2-0.1,0.4-0.3,0.5-0.5c0.1-0.2,0.2-0.5,0.2-0.7
			c0-0.3-0.1-0.5-0.2-0.7c-0.1-0.2-0.4-0.4-0.6-0.4C115.3,49.1,114.9,49,114.3,49"/>
		<path class="st2" d="M138,53l-0.9-0.6c-0.6-0.3-1-0.7-1.3-1.1c-0.3-0.3-0.4-0.7-0.4-1.2c0-0.7,0.2-1.2,0.7-1.6
			c0.5-0.4,1.1-0.6,1.8-0.6c0.7,0,1.4,0.2,2,0.6v1.4c-0.6-0.6-1.3-0.9-2-0.9c-0.4,0-0.7,0.1-1,0.3c-0.3,0.2-0.4,0.4-0.4,0.7
			c0,0.3,0.1,0.5,0.3,0.7c0.2,0.2,0.5,0.5,0.9,0.7l0.9,0.6c1,0.6,1.6,1.4,1.6,2.4c0,0.7-0.2,1.3-0.7,1.7c-0.5,0.4-1.1,0.7-1.8,0.7
			c-0.9,0-1.6-0.3-2.3-0.8v-1.6c0.7,0.8,1.4,1.3,2.3,1.3c0.4,0,0.7-0.1,0.9-0.3c0.3-0.2,0.4-0.5,0.4-0.8
			C139.1,53.9,138.7,53.4,138,53"/>
		<path class="st2" d="M8.4,60.2h0.8v3.2c0,0.4,0,0.7-0.1,1C9,64.5,9,64.7,8.9,64.8c-0.1,0.2-0.2,0.3-0.3,0.4
			c-0.4,0.4-1,0.6-1.7,0.6c-0.7,0-1.3-0.2-1.7-0.6c-0.1-0.1-0.3-0.2-0.3-0.4c-0.1-0.1-0.2-0.3-0.2-0.5c-0.1-0.2-0.1-0.5-0.1-1v-3.1
			h0.8v3.2c0,0.5,0.1,0.9,0.2,1.1s0.3,0.4,0.5,0.5c0.3,0.1,0.5,0.2,0.9,0.2c0.5,0,0.9-0.1,1.2-0.4c0.2-0.1,0.3-0.3,0.3-0.5
			c0.1-0.2,0.1-0.5,0.1-0.9V60.2z"/>
		<path class="st2" d="M30.7,65.7v-5.6h1.4c0.6,0,1,0.1,1.3,0.4c0.3,0.3,0.5,0.7,0.5,1.1c0,0.3-0.1,0.6-0.2,0.8
			c-0.2,0.2-0.4,0.4-0.7,0.5c0.2,0.1,0.3,0.3,0.5,0.5c0.2,0.2,0.4,0.6,0.7,1.1c0.2,0.3,0.3,0.6,0.5,0.7l0.3,0.4h-0.9l-0.2-0.4
			c0,0,0,0-0.1-0.1l-0.2-0.2l-0.3-0.4l-0.3-0.4c-0.2-0.2-0.3-0.4-0.4-0.5c-0.1-0.1-0.3-0.2-0.4-0.3c-0.1-0.1-0.3-0.1-0.6-0.1h-0.2
			v2.4C31.5,65.7,30.7,65.7,30.7,65.7z M31.8,60.9h-0.2v1.8h0.3c0.4,0,0.7,0,0.8-0.1c0.2-0.1,0.3-0.2,0.3-0.3
			c0.1-0.1,0.1-0.3,0.1-0.5c0-0.2,0-0.3-0.1-0.5c-0.1-0.1-0.2-0.2-0.4-0.3C32.4,60.9,32.2,60.9,31.8,60.9"/>
		<path class="st2" d="M37.6,63.4L37,63c-0.4-0.2-0.7-0.5-0.8-0.7C36,62.1,36,61.9,36,61.6c0-0.4,0.2-0.8,0.4-1.1
			c0.3-0.3,0.7-0.4,1.2-0.4c0.4,0,0.9,0.1,1.3,0.4v0.9c-0.4-0.4-0.8-0.6-1.3-0.6c-0.3,0-0.5,0.1-0.6,0.2c-0.2,0.1-0.2,0.3-0.2,0.4
			c0,0.2,0.1,0.3,0.2,0.5c0.1,0.2,0.3,0.3,0.6,0.5l0.6,0.4c0.7,0.4,1,0.9,1,1.5c0,0.4-0.2,0.8-0.4,1.1c-0.3,0.3-0.7,0.4-1.2,0.4
			c-0.5,0-1-0.2-1.5-0.5v-1c0.4,0.6,0.9,0.8,1.5,0.8c0.3,0,0.5-0.1,0.6-0.2c0.2-0.1,0.3-0.3,0.3-0.5C38.3,64,38.1,63.7,37.6,63.4"/>
		<path class="st2" d="M43.2,65.7v-5.5h1.9c0.8,0,1.3,0.1,1.8,0.3c0.4,0.2,0.8,0.6,1,1c0.3,0.4,0.4,0.9,0.4,1.4
			c0,0.4-0.1,0.7-0.2,1.1c-0.1,0.3-0.3,0.6-0.6,0.9c-0.3,0.3-0.6,0.5-0.9,0.6c-0.2,0.1-0.4,0.1-0.6,0.2c-0.2,0-0.5,0-1,0
			C45,65.7,43.2,65.7,43.2,65.7z M45,60.9h-1V65h1c0.4,0,0.7,0,0.9-0.1c0.2-0.1,0.4-0.1,0.6-0.2c0.2-0.1,0.3-0.2,0.4-0.3
			c0.4-0.4,0.6-0.9,0.6-1.5c0-0.6-0.2-1.1-0.6-1.4c-0.2-0.1-0.3-0.3-0.5-0.3C46.2,61,46,61,45.8,60.9C45.7,60.9,45.4,60.9,45,60.9"
			/>
		<path class="st2" d="M55.5,65.7v-5.5h1.9c0.8,0,1.4,0.1,1.8,0.3c0.4,0.2,0.8,0.6,1.1,1c0.3,0.4,0.4,0.9,0.4,1.4
			c0,0.4-0.1,0.7-0.2,1.1c-0.1,0.3-0.4,0.6-0.6,0.9c-0.3,0.3-0.6,0.5-0.9,0.6c-0.2,0.1-0.4,0.1-0.6,0.2c-0.2,0-0.5,0-1,0
			C57.3,65.7,55.5,65.7,55.5,65.7z M57.3,60.9h-1V65h1c0.4,0,0.7,0,0.9-0.1c0.2-0.1,0.4-0.1,0.6-0.2c0.1-0.1,0.3-0.2,0.4-0.3
			c0.4-0.4,0.6-0.9,0.6-1.5c0-0.6-0.2-1.1-0.6-1.4c-0.1-0.1-0.3-0.3-0.5-0.3c-0.2-0.1-0.4-0.2-0.5-0.2C58,60.9,57.7,60.9,57.3,60.9"
			/>
		<path class="st2" d="M65.1,65.7v-5.5H67c0.8,0,1.4,0.1,1.8,0.3c0.4,0.2,0.8,0.6,1.1,1c0.3,0.4,0.4,0.9,0.4,1.4
			c0,0.4-0.1,0.7-0.2,1.1c-0.1,0.3-0.3,0.6-0.6,0.9c-0.3,0.3-0.6,0.5-0.9,0.6c-0.2,0.1-0.4,0.1-0.6,0.2c-0.2,0-0.5,0-1,0
			C66.9,65.7,65.1,65.7,65.1,65.7z M66.9,60.9h-1V65h1c0.4,0,0.7,0,0.9-0.1c0.2-0.1,0.4-0.1,0.6-0.2c0.1-0.1,0.3-0.2,0.4-0.3
			c0.4-0.4,0.6-0.9,0.6-1.5c0-0.6-0.2-1.1-0.6-1.4c-0.1-0.1-0.3-0.3-0.5-0.3c-0.2-0.1-0.4-0.2-0.6-0.2
			C67.5,60.9,67.3,60.9,66.9,60.9"/>
		<path class="st2" d="M82.4,63h1.9v2.3c-0.7,0.3-1.4,0.4-2,0.4c-0.9,0-1.6-0.3-2.2-0.8c-0.5-0.5-0.8-1.2-0.8-2
			c0-0.8,0.3-1.5,0.9-2.1c0.6-0.6,1.3-0.8,2.1-0.8c0.3,0,0.6,0,0.9,0.1c0.3,0.1,0.6,0.2,1.1,0.4v0.8c-0.7-0.4-1.3-0.6-2-0.6
			c-0.6,0-1.1,0.2-1.5,0.6C80.2,61.8,80,62.4,80,63c0,0.6,0.2,1.1,0.6,1.6c0.4,0.4,0.9,0.6,1.6,0.6c0.3,0,0.7-0.1,1.1-0.2l0.1,0
			v-1.2h-1.1V63z"/>
		<path class="st2" d="M89.9,60.2h0.8v3.2c0,0.4,0,0.7-0.1,1c-0.1,0.2-0.1,0.4-0.2,0.5c-0.1,0.2-0.2,0.3-0.3,0.4
			c-0.4,0.4-1,0.6-1.7,0.6c-0.7,0-1.3-0.2-1.7-0.6c-0.1-0.1-0.2-0.2-0.3-0.4c-0.1-0.1-0.2-0.3-0.2-0.5s-0.1-0.5-0.1-1v-3.1h0.8v3.2
			c0,0.5,0.1,0.9,0.2,1.1c0.1,0.2,0.3,0.4,0.6,0.5c0.2,0.1,0.5,0.2,0.9,0.2c0.5,0,0.9-0.1,1.1-0.4c0.2-0.1,0.3-0.3,0.4-0.5
			c0.1-0.2,0.1-0.5,0.1-0.9L89.9,60.2L89.9,60.2z"/>
		<path class="st2" d="M98.2,65.7v-5.5h1.9c0.8,0,1.4,0.1,1.8,0.3c0.4,0.2,0.8,0.6,1.1,1c0.3,0.4,0.4,0.9,0.4,1.4
			c0,0.4-0.1,0.7-0.2,1.1c-0.1,0.3-0.4,0.6-0.6,0.9c-0.3,0.3-0.6,0.5-0.9,0.6c-0.2,0.1-0.4,0.1-0.6,0.2c-0.2,0-0.5,0-1,0
			C100,65.7,98.2,65.7,98.2,65.7z M100,60.9h-1V65h1c0.4,0,0.7,0,0.9-0.1c0.2-0.1,0.4-0.1,0.5-0.2c0.1-0.1,0.3-0.2,0.4-0.3
			c0.4-0.4,0.6-0.9,0.6-1.5c0-0.6-0.2-1.1-0.6-1.4c-0.2-0.1-0.3-0.3-0.5-0.3c-0.2-0.1-0.4-0.2-0.6-0.2
			C100.6,60.9,100.4,60.9,100,60.9"/>
		<path class="st2" d="M121.1,60.2h0.8v5.5c0,0.5-0.1,0.9-0.1,1.1c-0.1,0.2-0.3,0.4-0.5,0.6c-0.2,0.2-0.5,0.2-0.8,0.2
			c-0.1,0-0.1,0-0.3,0l-0.1-0.7h0.2c0.2,0,0.4,0,0.5-0.1c0.1-0.1,0.2-0.2,0.3-0.3c0.1-0.1,0.1-0.4,0.1-0.9L121.1,60.2L121.1,60.2z"
			/>
		<path class="st2" d="M129.8,65.7v-5.6h1.4c0.6,0,1,0.1,1.3,0.4c0.3,0.3,0.5,0.7,0.5,1.1c0,0.3-0.1,0.6-0.2,0.8
			c-0.2,0.2-0.4,0.4-0.7,0.5c0.2,0.1,0.4,0.3,0.5,0.5c0.2,0.2,0.4,0.6,0.7,1.1c0.2,0.3,0.4,0.6,0.5,0.7l0.3,0.4h-0.9l-0.3-0.4
			c0,0,0,0,0-0.1l-0.2-0.2l-0.3-0.4l-0.3-0.4c-0.2-0.2-0.3-0.4-0.4-0.5c-0.1-0.1-0.3-0.2-0.4-0.3c-0.1-0.1-0.3-0.1-0.6-0.1h-0.2v2.4
			C130.6,65.7,129.8,65.7,129.8,65.7z M130.9,60.9h-0.2v1.8h0.3c0.4,0,0.7,0,0.8-0.1c0.1-0.1,0.3-0.2,0.4-0.3
			c0.1-0.1,0.1-0.3,0.1-0.5c0-0.2-0.1-0.3-0.1-0.5c-0.1-0.1-0.2-0.2-0.4-0.3C131.5,60.9,131.2,60.9,130.9,60.9"/>
	</g>
</g>
<g id="Capa_3" class="st0">
	<rect x="-72.5" y="112.1" class="st5" width="290" height="150"/>
</g>
</svg>
