<?xml version="1.0" encoding="utf-8"?>
<!-- Generator: Adobe Illustrator 24.2.0, SVG Export Plug-In . SVG Version: 6.00 Build 0)  -->
<svg version="1.1" id="Capa_1" xmlns="http://www.w3.org/2000/svg" xmlns:xlink="http://www.w3.org/1999/xlink" x="0px" y="0px"
	 viewBox="0 0 217.5 76.8" style="enable-background:new 0 0 217.5 76.8;" xml:space="preserve">
<style type="text/css">
	.st0{display:none;}
	.st1{display:inline;fill:#FFFFFF;}
	.st2{fill:#201747;}
	.st3{fill:#789904;}
	.st4{fill:#D7282F;}
	.st5{fill:#AE841F;}
	.st6{display:inline;fill:none;stroke:#F1F2F2;stroke-miterlimit:10;}
</style>
<g id="Capa_2_1_" class="st0">
	<rect x="-2045.2" y="33.4" class="st1" width="3296" height="656.8"/>
</g>
<g id="Capa_1_1_">
	<g>
		<g>
			<path class="st2" d="M73.4,12.8v-0.4h5.2v0.4h-0.6c-0.6,0-1,0.2-1.3,0.7c-0.2,0.2-0.2,0.8-0.2,1.6v6c0,1.5-0.1,2.6-0.4,3.4
				c-0.3,0.8-0.9,1.5-1.7,2.1c-0.8,0.6-2,0.9-3.5,0.9c-1.6,0-2.8-0.3-3.7-0.8c-0.8-0.5-1.4-1.3-1.8-2.2c-0.2-0.6-0.3-1.8-0.3-3.6V15
				c0-0.9-0.1-1.5-0.4-1.8c-0.2-0.3-0.7-0.4-1.2-0.4h-0.6v-0.4h6.4v0.4h-0.6c-0.6,0-1.1,0.2-1.3,0.6c-0.2,0.3-0.3,0.8-0.3,1.6v6.4
				c0,0.6,0.1,1.2,0.2,2c0.1,0.7,0.3,1.3,0.6,1.7c0.3,0.4,0.7,0.8,1.2,1c0.5,0.3,1.2,0.4,1.9,0.4c1,0,1.8-0.2,2.6-0.6
				c0.8-0.4,1.3-1,1.6-1.6c0.3-0.7,0.4-1.8,0.4-3.3v-6c0-0.9-0.1-1.5-0.3-1.7c-0.3-0.3-0.7-0.5-1.3-0.5L73.4,12.8L73.4,12.8z"/>
			<path class="st2" d="M78.6,15.3h3.2l7.2,8.8v-6.8c0-0.7-0.1-1.2-0.2-1.4c-0.2-0.2-0.6-0.4-1-0.4h-0.4v-0.3h4.1v0.3H91
				c-0.5,0-0.8,0.2-1.1,0.4c-0.1,0.2-0.2,0.6-0.2,1.3v9.9h-0.3l-7.8-9.5V25c0,0.7,0.1,1.2,0.2,1.3c0.2,0.2,0.6,0.4,1,0.4h0.4v0.3
				h-4.1v-0.3h0.4c0.5,0,0.9-0.2,1.1-0.5c0.1-0.2,0.2-0.6,0.2-1.3v-8.2c-0.3-0.4-0.6-0.7-0.8-0.8c-0.2-0.1-0.4-0.2-0.8-0.3
				c-0.2,0-0.4-0.1-0.8-0.1L78.6,15.3L78.6,15.3z"/>
			<path class="st2" d="M97.2,26.8v0.3h-5v-0.3h0.4c0.5,0,0.8-0.1,1.1-0.4c0.1-0.2,0.2-0.6,0.2-1.3v-7.6c0-0.6,0-1-0.1-1.2l-0.4-0.4
				c-0.3-0.1-0.5-0.2-0.8-0.2h-0.4v-0.3h5v0.3h-0.4c-0.5,0-0.8,0.1-1.1,0.4c-0.1,0.2-0.2,0.6-0.2,1.3V25c0,0.6,0,1,0.1,1.2l0.4,0.4
				c0.2,0.1,0.5,0.2,0.8,0.2L97.2,26.8L97.2,26.8z"/>
			<path class="st2" d="M110.2,15.3v0.3c-0.4,0.1-0.7,0.2-0.9,0.4c-0.3,0.3-0.6,0.7-0.8,1.3l-4.1,10H104l-4.4-10.1
				c-0.2-0.5-0.4-0.8-0.5-1l-0.5-0.4c-0.2-0.1-0.5-0.2-0.9-0.2v-0.3h4.8v0.3c-0.6,0-0.9,0.1-1.1,0.3l-0.3,0.5c0,0.3,0.1,0.7,0.4,1.3
				l3,6.9l2.8-6.8c0.3-0.7,0.4-1.1,0.4-1.4l-0.3-0.5c-0.2-0.2-0.4-0.3-0.8-0.3l-0.1,0v-0.3H110.2z"/>
			<path class="st2" d="M114.1,16v4.6h2.6c0.7,0,1.1-0.1,1.4-0.3c0.3-0.3,0.5-0.7,0.5-1.4h0.3V23h-0.3c-0.1-0.6-0.2-0.9-0.2-1.1
				l-0.5-0.5c-0.2-0.1-0.6-0.2-1.1-0.2h-2.6v3.9c0,0.5,0,0.8,0.1,1l0.2,0.3c0.1,0.1,0.3,0.1,0.7,0.1h2c0.7,0,1.1,0,1.4-0.1
				c0.3-0.1,0.6-0.3,0.9-0.5c0.4-0.4,0.7-0.9,1.1-1.6h0.4l-1,3h-9.1v-0.3h0.4c0.3,0,0.5-0.1,0.8-0.2l0.4-0.4
				c0.1-0.2,0.1-0.6,0.1-1.1v-7.6c0-0.8-0.1-1.2-0.2-1.4c-0.2-0.2-0.6-0.3-1-0.3h-0.4v-0.3h9.1l0.1,2.6h-0.3c-0.1-0.6-0.3-1-0.4-1.3
				c-0.1-0.2-0.4-0.4-0.6-0.5c-0.2-0.1-0.6-0.1-1.2-0.1L114.1,16L114.1,16z"/>
			<path class="st2" d="M133.2,27.1h-3.1l-4-5.5c-0.3,0-0.5,0-0.7,0h-0.2l-0.3,0V25c0,0.7,0.1,1.2,0.2,1.4c0.2,0.3,0.6,0.4,1,0.4
				h0.5v0.3h-5v-0.3h0.4c0.5,0,0.9-0.2,1.1-0.5c0.1-0.2,0.2-0.6,0.2-1.3v-7.6c0-0.7-0.1-1.2-0.2-1.4c-0.2-0.3-0.6-0.4-1-0.4h-0.4
				v-0.3h4.3c1.3,0,2.2,0.1,2.8,0.3c0.6,0.2,1.1,0.5,1.5,1c0.4,0.5,0.6,1.1,0.6,1.8c0,0.7-0.2,1.3-0.7,1.9c-0.5,0.5-1.2,0.9-2.2,1.1
				l2.4,3.4c0.6,0.8,1,1.3,1.4,1.5s0.9,0.4,1.6,0.5L133.2,27.1L133.2,27.1z M124.9,21h0.3h0.2c1.1,0,2-0.2,2.5-0.7
				c0.6-0.5,0.9-1.1,0.9-1.8c0-0.7-0.2-1.3-0.7-1.8S127,16,126.3,16c-0.3,0-0.8,0.1-1.4,0.2L124.9,21L124.9,21z"/>
			<path class="st2" d="M141.2,15.1v4.1h-0.3c-0.1-0.8-0.3-1.4-0.6-1.9s-0.6-0.8-1.1-1.1c-0.5-0.3-1-0.4-1.5-0.4
				c-0.6,0-1.1,0.2-1.5,0.5c-0.4,0.4-0.6,0.8-0.6,1.3c0,0.4,0.1,0.7,0.4,1c0.4,0.4,1.2,1,2.6,1.7c1.1,0.6,1.9,1,2.3,1.4
				c0.4,0.3,0.7,0.7,0.9,1.1c0.2,0.4,0.3,0.9,0.3,1.3c0,0.9-0.4,1.7-1,2.3c-0.7,0.7-1.6,1-2.7,1c-0.3,0-0.7,0-1-0.1
				c-0.2,0-0.6-0.1-1.1-0.3s-0.9-0.3-1.1-0.3l-0.3,0.1c-0.1,0.1-0.1,0.3-0.2,0.5h-0.3v-4h0.3c0.1,0.8,0.4,1.5,0.6,1.9
				c0.3,0.4,0.6,0.8,1.2,1c0.5,0.3,1.1,0.4,1.7,0.4c0.7,0,1.3-0.2,1.7-0.6c0.4-0.4,0.6-0.8,0.6-1.3c0-0.3-0.1-0.6-0.2-0.9
				c-0.1-0.3-0.4-0.6-0.7-0.8c-0.2-0.2-0.8-0.5-1.9-1.1c-1-0.6-1.7-1-2.1-1.3c-0.4-0.3-0.8-0.7-1-1.1c-0.2-0.4-0.3-0.8-0.3-1.3
				c0-0.8,0.3-1.6,1-2.2c0.6-0.6,1.5-0.9,2.5-0.9c0.6,0,1.3,0.2,2,0.5c0.3,0.1,0.6,0.2,0.7,0.2l0.4-0.1c0.1-0.1,0.2-0.3,0.2-0.5
				C140.9,15.1,141.2,15.1,141.2,15.1z"/>
			<path class="st2" d="M148.4,26.8v0.3h-5v-0.3h0.4c0.5,0,0.8-0.1,1.1-0.4c0.1-0.2,0.2-0.6,0.2-1.3v-7.6c0-0.6,0-1-0.1-1.2
				l-0.4-0.4c-0.3-0.1-0.5-0.2-0.8-0.2h-0.4v-0.3h5v0.3H148c-0.5,0-0.8,0.1-1.1,0.4c-0.1,0.2-0.2,0.6-0.2,1.3V25c0,0.6,0,1,0.1,1.2
				l0.4,0.4c0.2,0.1,0.5,0.2,0.8,0.2L148.4,26.8L148.4,26.8z"/>
			<path class="st2" d="M149.2,27.1v-0.3h0.4c0.5,0,0.9-0.2,1.1-0.5c0.1-0.2,0.2-0.6,0.2-1.3v-7.6c0-0.7-0.1-1.2-0.2-1.4
				c-0.2-0.3-0.6-0.4-1-0.4h-0.4v-0.3h4.8c1.8,0,3.1,0.2,4,0.6c0.9,0.4,1.6,1.1,2.2,2c0.6,0.9,0.8,2,0.8,3.2c0,1.6-0.5,3-1.5,4.1
				c-1.1,1.2-2.8,1.8-5.1,1.8L149.2,27.1L149.2,27.1z M152.5,26.2c0.7,0.2,1.4,0.2,1.9,0.2c1.3,0,2.4-0.5,3.3-1.4s1.3-2.2,1.3-3.8
				c0-1.6-0.4-2.9-1.3-3.8c-0.9-0.9-2-1.4-3.4-1.4c-0.5,0-1.1,0.1-1.8,0.3L152.5,26.2L152.5,26.2z"/>
			<path class="st2" d="M169.8,23.1h-4.6l-0.8,1.9c-0.2,0.5-0.3,0.8-0.3,1l0.3,0.5c0.2,0.1,0.5,0.2,1.1,0.3v0.3h-3.7v-0.3
				c0.5-0.1,0.8-0.2,0.9-0.3c0.3-0.3,0.6-0.8,1-1.7l4.1-9.7h0.3l4.1,9.8c0.3,0.8,0.6,1.3,0.9,1.5c0.3,0.2,0.6,0.4,1.1,0.4v0.3h-4.6
				v-0.3c0.5,0,0.8-0.1,0.9-0.2l0.3-0.5c0-0.3-0.1-0.7-0.4-1.2L169.8,23.1z M169.6,22.5l-2-4.8l-2,4.8H169.6z"/>
			<path class="st2" d="M174.8,27.1v-0.3h0.4c0.5,0,0.9-0.2,1.1-0.5c0.1-0.2,0.2-0.6,0.2-1.3v-7.6c0-0.7-0.1-1.2-0.2-1.4
				c-0.2-0.3-0.6-0.4-1-0.4h-0.4v-0.3h4.8c1.8,0,3.1,0.2,4,0.6c0.9,0.4,1.6,1.1,2.2,2c0.6,0.9,0.8,2,0.8,3.2c0,1.6-0.5,3-1.5,4.1
				c-1.1,1.2-2.8,1.8-5.1,1.8L174.8,27.1L174.8,27.1z M178.2,26.2c0.7,0.2,1.4,0.2,1.9,0.2c1.3,0,2.4-0.5,3.3-1.4
				c0.9-0.9,1.3-2.2,1.3-3.8c0-1.6-0.4-2.9-1.3-3.8c-0.9-0.9-2-1.4-3.4-1.4c-0.5,0-1.1,0.1-1.8,0.3V26.2z"/>
			<path class="st2" d="M192.1,27.1v-0.3h0.4c0.5,0,0.9-0.2,1.1-0.5c0.1-0.2,0.2-0.6,0.2-1.3v-7.6c0-0.7-0.1-1.2-0.2-1.4
				c-0.2-0.3-0.6-0.4-1-0.4h-0.4v-0.3h4.8c1.8,0,3.1,0.2,4,0.6c0.9,0.4,1.6,1.1,2.2,2s0.8,2,0.8,3.2c0,1.6-0.5,3-1.5,4.1
				c-1.1,1.2-2.8,1.8-5.1,1.8L192.1,27.1L192.1,27.1z M195.4,26.2c0.7,0.2,1.4,0.2,1.9,0.2c1.3,0,2.4-0.5,3.3-1.4
				c0.9-0.9,1.3-2.2,1.3-3.8c0-1.6-0.4-2.9-1.3-3.8c-0.9-0.9-2-1.4-3.4-1.4c-0.5,0-1.1,0.1-1.8,0.3V26.2z"/>
			<path class="st2" d="M208.3,16v4.6h2.6c0.7,0,1.1-0.1,1.3-0.3c0.3-0.3,0.5-0.7,0.5-1.4h0.3V23h-0.3c-0.1-0.6-0.2-0.9-0.2-1.1
				l-0.5-0.5c-0.2-0.1-0.6-0.2-1.1-0.2h-2.6v3.9c0,0.5,0,0.8,0.1,1l0.2,0.3c0.1,0.1,0.3,0.1,0.6,0.1h2c0.7,0,1.1,0,1.4-0.1
				c0.3-0.1,0.6-0.3,0.9-0.5c0.4-0.4,0.7-0.9,1.1-1.6h0.4l-1,3H205v-0.3h0.4c0.3,0,0.5-0.1,0.8-0.2l0.4-0.4c0.1-0.2,0.1-0.6,0.1-1.1
				v-7.6c0-0.8-0.1-1.2-0.2-1.4c-0.2-0.2-0.6-0.3-1-0.3H205v-0.3h9.1l0.1,2.6h-0.3c-0.1-0.6-0.3-1-0.4-1.3c-0.1-0.2-0.4-0.4-0.6-0.5
				c-0.2-0.1-0.6-0.1-1.2-0.1L208.3,16L208.3,16z"/>
			<path class="st2" d="M77.5,32.7l0.4,5.2h-0.4c-0.4-1.3-1-2.3-1.7-2.9c-1-1-2.3-1.4-3.8-1.4c-2.1,0-3.7,0.8-4.8,2.5
				c-0.9,1.4-1.4,3.1-1.4,5.1c0,1.6,0.3,3,0.9,4.3c0.6,1.3,1.4,2.3,2.4,2.9c1,0.6,2,0.9,3.1,0.9c0.6,0,1.2-0.1,1.8-0.2
				c0.6-0.2,1.1-0.4,1.7-0.7v-4.8c0-0.8-0.1-1.4-0.2-1.6c-0.1-0.3-0.3-0.4-0.6-0.6c-0.3-0.1-0.7-0.2-1.4-0.2v-0.5h6.4v0.5h-0.3
				c-0.6,0-1.1,0.2-1.3,0.6C78.1,42,78,42.6,78,43.5v5.1c-0.9,0.5-1.9,0.9-2.8,1.1c-0.9,0.2-1.9,0.3-3.1,0.3c-3.2,0-5.7-1-7.3-3.1
				c-1.3-1.6-1.9-3.3-1.9-5.3c0-1.5,0.3-2.9,1.1-4.2c0.8-1.6,2-2.8,3.4-3.7c1.2-0.7,2.7-1.1,4.3-1.1c0.6,0,1.2,0.1,1.7,0.2
				c0.5,0.1,1.2,0.3,2.1,0.6c0.5,0.2,0.8,0.3,0.9,0.3l0.4-0.2c0.1-0.1,0.2-0.4,0.2-0.8C77.1,32.7,77.5,32.7,77.5,32.7z"/>
			<path class="st2" d="M89.8,36.8v-0.4h4.7v0.4H94c-0.5,0-0.9,0.2-1.2,0.7c-0.1,0.2-0.2,0.7-0.2,1.4v5.4c0,1.3-0.1,2.4-0.4,3.1
				c-0.3,0.7-0.8,1.4-1.6,1.9c-0.8,0.5-1.8,0.8-3.2,0.8c-1.4,0-2.6-0.3-3.3-0.8c-0.8-0.5-1.3-1.2-1.6-2c-0.2-0.6-0.3-1.7-0.3-3.3
				v-5.2c0-0.8-0.1-1.4-0.3-1.6c-0.2-0.3-0.6-0.4-1.1-0.4h-0.5v-0.4h5.8v0.4h-0.5c-0.6,0-0.9,0.2-1.2,0.5c-0.2,0.2-0.2,0.7-0.2,1.5
				v5.8c0,0.5,0.1,1.1,0.1,1.8c0.1,0.7,0.3,1.2,0.5,1.6c0.2,0.4,0.6,0.7,1.1,0.9s1,0.4,1.7,0.4c0.9,0,1.7-0.2,2.3-0.6
				c0.7-0.4,1.2-0.9,1.4-1.5c0.3-0.6,0.4-1.6,0.4-3v-5.4c0-0.8-0.1-1.3-0.3-1.6c-0.3-0.3-0.6-0.4-1.1-0.4L89.8,36.8L89.8,36.8z"/>
			<path class="st2" d="M103.9,45.2h-5.1l-0.9,2.1c-0.2,0.5-0.3,0.9-0.3,1.2l0.3,0.5c0.2,0.2,0.6,0.3,1.3,0.3v0.4h-4.2v-0.4
				c0.6-0.1,0.9-0.2,1.1-0.4c0.3-0.3,0.7-0.9,1.1-1.9l4.7-10.9h0.3l4.6,11.1c0.4,0.9,0.7,1.5,1,1.7c0.3,0.3,0.7,0.4,1.3,0.4v0.4
				h-5.3v-0.4c0.5,0,0.9-0.1,1.1-0.3l0.3-0.6c0-0.3-0.1-0.7-0.4-1.4L103.9,45.2z M103.7,44.5l-2.3-5.4l-2.3,5.4H103.7z"/>
			<path class="st2" d="M109.6,49.7v-0.4h0.5c0.6,0,1-0.2,1.2-0.5c0.1-0.2,0.2-0.7,0.2-1.4v-8.6c0-0.8-0.1-1.3-0.3-1.6
				c-0.3-0.3-0.6-0.4-1.1-0.4h-0.5v-0.4h5.4c2,0,3.5,0.2,4.5,0.7c1,0.4,1.9,1.2,2.5,2.3c0.6,1.1,0.9,2.3,0.9,3.7
				c0,1.8-0.6,3.4-1.7,4.7c-1.3,1.4-3.2,2.1-5.8,2.1C115.6,49.7,109.6,49.7,109.6,49.7z M113.4,48.7c0.8,0.2,1.5,0.3,2.1,0.3
				c1.5,0,2.8-0.5,3.8-1.6c1-1.1,1.5-2.5,1.5-4.3c0-1.8-0.5-3.3-1.5-4.3c-1-1.1-2.3-1.6-3.9-1.6c-0.6,0-1.3,0.1-2,0.3V48.7z"/>
			<path class="st2" d="M133,45.2h-5.1l-0.9,2.1c-0.2,0.5-0.3,0.9-0.3,1.2l0.3,0.5c0.2,0.2,0.6,0.3,1.3,0.3v0.4h-4.2v-0.4
				c0.6-0.1,0.9-0.2,1.1-0.4c0.3-0.3,0.7-0.9,1.1-1.9l4.7-10.9h0.3l4.6,11.1c0.4,0.9,0.7,1.5,1,1.7c0.3,0.3,0.7,0.4,1.3,0.4v0.4
				h-5.3v-0.4c0.5,0,0.9-0.1,1.1-0.3l0.3-0.6c0-0.3-0.1-0.7-0.4-1.4L133,45.2z M132.7,44.5l-2.3-5.4l-2.3,5.4H132.7z"/>
			<path class="st2" d="M149.8,46l0.3,0.1l-1.1,3.6h-10.3v-0.4h0.5c0.6,0,1-0.2,1.2-0.6c0.1-0.2,0.2-0.7,0.2-1.4v-8.6
				c0-0.8-0.1-1.3-0.3-1.6c-0.3-0.3-0.6-0.4-1.1-0.4h-0.5v-0.4h6v0.4c-0.7,0-1.2,0.1-1.5,0.2c-0.3,0.1-0.5,0.3-0.6,0.5
				s-0.2,0.7-0.2,1.5v8.4c0,0.5,0.1,0.9,0.2,1.1l0.4,0.3c0.2,0.1,0.7,0.1,1.5,0.1h1c1,0,1.7-0.1,2.1-0.2c0.4-0.2,0.8-0.4,1.1-0.8
				C149.1,47.4,149.5,46.8,149.8,46"/>
			<path class="st2" d="M159.7,45.2h-5.1l-0.9,2.1c-0.2,0.5-0.3,0.9-0.3,1.2l0.3,0.5c0.2,0.2,0.6,0.3,1.3,0.3v0.4h-4.2v-0.4
				c0.6-0.1,0.9-0.2,1.1-0.4c0.3-0.3,0.7-0.9,1.1-1.9l4.7-10.9h0.3l4.6,11.1c0.4,0.9,0.7,1.5,1,1.7c0.3,0.3,0.7,0.4,1.3,0.4v0.4
				h-5.3v-0.4c0.5,0,0.9-0.1,1.1-0.3l0.3-0.6c0-0.3-0.1-0.7-0.4-1.4L159.7,45.2z M159.5,44.5l-2.3-5.4l-2.3,5.4H159.5z"/>
			<path class="st2" d="M167.1,36.8v-0.4h5.7v0.4h-0.5c-0.5,0-0.9,0.2-1.2,0.5c-0.1,0.2-0.2,0.7-0.2,1.5v6.5c0,1-0.1,1.8-0.3,2.4
				c-0.2,0.6-0.6,1.2-1.1,1.6c-0.5,0.5-1.2,0.7-1.9,0.7c-0.6,0-1.1-0.2-1.4-0.4c-0.4-0.3-0.5-0.7-0.5-1c0-0.3,0.1-0.6,0.2-0.7
				c0.2-0.2,0.5-0.3,0.8-0.3l0.6,0.2c0.2,0.1,0.4,0.5,0.6,1.1c0.1,0.3,0.4,0.5,0.6,0.5l0.5-0.3c0.1-0.2,0.2-0.6,0.2-1.2v-9.1
				c0-0.7,0-1.1-0.1-1.3l-0.4-0.4c-0.3-0.2-0.6-0.2-0.9-0.2L167.1,36.8L167.1,36.8z"/>
			<path class="st2" d="M182.1,45.2h-5.1l-0.9,2.1c-0.2,0.5-0.3,0.9-0.3,1.2L176,49c0.2,0.2,0.6,0.3,1.3,0.3v0.4H173v-0.4
				c0.6-0.1,0.9-0.2,1.1-0.4c0.3-0.3,0.7-0.9,1.1-1.9l4.7-10.9h0.3l4.6,11.1c0.4,0.9,0.7,1.5,1,1.7c0.3,0.3,0.7,0.4,1.3,0.4v0.4
				h-5.3v-0.4c0.5,0,0.9-0.1,1.1-0.3l0.3-0.6c0-0.3-0.1-0.7-0.4-1.4L182.1,45.2z M181.8,44.5l-2.3-5.4l-2.3,5.4H181.8z"/>
			<path class="st2" d="M201,49.7h-3.6l-4.5-6.2c-0.3,0-0.6,0-0.8,0h-0.3l-0.3,0v3.9c0,0.8,0.1,1.3,0.3,1.6c0.3,0.3,0.6,0.4,1.1,0.4
				h0.5v0.4h-5.7v-0.4h0.5c0.6,0,1-0.2,1.2-0.6c0.1-0.2,0.2-0.7,0.2-1.4v-8.6c0-0.8-0.1-1.4-0.3-1.6c-0.3-0.3-0.6-0.4-1.1-0.4h-0.5
				v-0.4h4.8c1.4,0,2.4,0.1,3.1,0.3c0.7,0.2,1.2,0.6,1.7,1.1c0.5,0.6,0.7,1.2,0.7,2c0,0.8-0.3,1.5-0.8,2.1c-0.5,0.6-1.4,1-2.5,1.3
				l2.7,3.8c0.6,0.9,1.2,1.5,1.6,1.8s1,0.5,1.8,0.6L201,49.7L201,49.7z M191.5,42.8h0.3h0.2c1.3,0,2.2-0.3,2.9-0.8
				c0.6-0.6,1-1.3,1-2.1c0-0.8-0.3-1.5-0.8-2s-1.2-0.8-2.1-0.8c-0.4,0-0.9,0.1-1.5,0.2L191.5,42.8L191.5,42.8z"/>
			<path class="st2" d="M210,45.2h-5.1l-0.9,2.1c-0.2,0.5-0.3,0.9-0.3,1.2l0.3,0.5c0.2,0.2,0.6,0.3,1.3,0.3v0.4h-4.2v-0.4
				c0.6-0.1,0.9-0.2,1.1-0.4c0.3-0.3,0.7-0.9,1.1-1.9l4.7-10.9h0.3l4.6,11.1c0.4,0.9,0.7,1.5,1,1.7c0.3,0.3,0.7,0.4,1.3,0.4v0.4
				h-5.3v-0.4c0.5,0,0.9-0.1,1.1-0.3l0.3-0.6c0-0.3-0.1-0.7-0.4-1.4L210,45.2z M209.7,44.5l-2.3-5.4l-2.3,5.4H209.7z"/>
		</g>
		<rect x="21.4" y="40.6" class="st3" width="15" height="13.4"/>
		<path class="st2" d="M31.4,42.6l0.3,0c0.6,0,1.2,0.2,1.7,0.6l0.3,0.4c0.9,1.4,0.3,2.2,0.4,2.4l0.6,0.8c0.3,0.5,0.4,1.1,0.2,1.6
			c-0.1,0.4-0.3,0.7-0.5,1l-0.5,0.5L33.8,50l-0.1,0.1c-0.1,0.2,0,0.1-0.2,0.4c-0.3,0.7-0.7,1.1-1.5,1.4c-0.7,0.3-1.7,0.2-2.3-0.2
			l0,0.1l0,0l-0.1-0.2c-0.6-0.4-1.2,0-1.2,0c-0.3,0.1,0-0.1-0.4,0.1c-0.6,0.4-1.8,0.3-2.4,0l-0.7-0.5l0,0l-0.3-0.4l0,0l-0.1-0.2
			c-0.4-0.9,0-0.2-0.6-0.9l-0.3-0.3l0,0l-0.1-0.1l0,0c-0.2-0.3-0.2-0.3-0.3-0.6l-0.1-0.4c-0.3-0.9,0.3-2,0.8-2.4l-0.2-0.8
			c0-0.4,0.1-0.9,0.3-1.2c0.5-1,1.2-1.5,2.3-1.5l0.3,0c0.4-0.6,0.9-1.1,1.6-1.3c0.3-0.1,0.8-0.1,1.2-0.1
			C30.1,41.1,31,41.8,31.4,42.6 M38.7,31.9c-0.9-0.3-1.8-0.7-2.6-1l-0.3-0.1c-0.6-0.2-3.9-1.5-4.1-1.6c-0.4-0.3-0.3-1.2,0.1-1.5
			l0.2-0.2c0.3-0.3,0.6-0.7,0.8-1.1l0.1-0.1l0.1-0.1l0.2-0.6c0.6-2,0-3.8-1.6-5.2c-0.4-0.4-1.3-0.7-1.9-0.8h-0.4
			c-0.3-0.1-0.4-0.1-0.8,0L28,19.7c-0.3,0.1-0.7,0.2-0.9,0.4c-0.4,0.2-0.6,0.4-1,0.7L26,20.9l-0.4,0.5c-0.4,0.5-0.7,1.2-0.8,1.9
			l-0.1,0.5c0,0.6,0,1.3,0.2,1.8c0.1,0.4,0.3,0.7,0.5,1.1l0.3,0.4l0.2,0.2l0.3,0.3l0.2,0.3l0.1,0.3l0.1,0.3c0,0.6-0.4,0.7-0.8,0.9
			L24,30l-0.3,0.1l-5.9,2.3l-0.3,0.1c0.2,0.4,0.4,0.8,0.7,1.2l0.2,0.2c0.3,0.3,0.7,0.7,1.1,1c1.1,0.7,2.1,0.9,3.3,1
			c1.9,0.2,2.5,1.8,3.9,2.7c0.3,0.2,1.1,0.6,1.6,0.6v0H17.7v24.2c0,0.9,0.2,1.9,0.8,2.6c0.5,0.6,1.1,1,1.8,1.2
			c0.6,0.2,1.2,0.2,1.9,0.2l1,0c0.5,0,1,0,1.6,0l0.1,0H25c0.3,0,1,0.1,1.2,0.1c1,0.2,1.7,0.6,2.5,1.2l0.3,0.3l0.2-0.2l0.2-0.2
			c0.4-0.4,0.8-0.6,1.4-0.8c1.1-0.4,2.3-0.3,3.4-0.3c0.3,0,0.9,0,1.2,0c0.7,0.1,1.5,0,2.2-0.2c0.3-0.1,0.6-0.2,0.9-0.4l0.4-0.3
			c0.3-0.3,0.6-0.6,0.8-1c0.7-1.1,0.5-1.8,0.6-1.9V39.2c-0.9,0-1.7,0-2.6,0l-8,0c0.7,0,1.8-0.5,2.3-1l0.6-0.5l0.4-0.4
			c0.3-0.3,0.5-0.5,0.8-0.7c1.1-0.8,2-0.5,3.4-0.9c0.5-0.2,1-0.4,1.5-0.7c0.3-0.2,0.7-0.5,1-0.8l0.1-0.1l0.1-0.1
			c0.3-0.3,0.5-0.6,0.7-1l0.1-0.3l0.1-0.1L39,32L38.7,31.9z"/>
		<path class="st2" d="M53.1,18l0,0.4v0.4l0,0.4l0,0.4l-0.2,0l-0.1,0l-0.4-0.2l-0.2-0.1v-0.1c0.2,0,0.3,0,0.3-0.7
			c-0.6-0.3-0.7-0.2-0.9,0.2l-0.1,0.2l0.1,0.2c-0.3,0-0.4-0.1-0.6-0.1l0.3-0.3c0.2-0.3,0.9-1.4,1.2-1.7l0.2-0.3l0.3-0.3
			C53.2,17,53.2,17.4,53.1,18 M51.2,17l-0.4,0.2l0.1,0.4c0,0.3,0.1,1,0.2,1.2l-0.3,0l-0.3-0.1c0-0.5-0.1-1-0.2-1.5h-0.1
			c0,0.3-0.3,0.7-0.3,1.1c0,0.3,0.2,0,0.1,0.3c-0.1,0-0.6-0.3-0.9-0.3l0.3-0.2l0.3-0.9c0.1-0.3,0.4-1.4,0.4-1.6c0-0.1-0.3-0.4,0-0.3
			c0.4,0.1,1.3,0.3,1.3,0.8l-0.1,0.6l-0.1,0.3L51.2,17z M48.9,18.1c-0.3,0-0.7-0.2-0.9-0.2v-0.1c0.3,0,0.3,0.1,0.3-0.6l-0.6-0.2
			l-0.2,0.5l0.2,0.3c-0.3,0-0.4-0.1-0.6-0.1v-0.1l0.3-0.2l0.1-0.2c0.3-0.6,0.8-1.4,1.1-2l0.1-0.2l0.2-0.1c0,0.1,0,0.4,0,0.8
			c0,0.3,0,0.6,0,0.8l0.1,1.2l0.1,0.3V18.1z M46.2,17.8c-0.5,0-0.7-0.7-0.2-1l0,0l0,0c0.3,0.3-0.1,0.4,0,0.8c0.3,0,0.3-0.2,0.3-0.6
			c0.1-0.5,0.4-2.1,0.4-2.5l-0.2-0.1v-0.1c0.4,0,0.7,0.2,1,0.2v0.1c-0.4,0-0.4,0.6-0.5,1.2L47,16.5C46.9,17,46.9,17.8,46.2,17.8
			 M44.6,17.1l0.3-0.2v-0.7l-0.7-0.1l-0.2,0.6l0.2,0.2V17L43.6,17v-0.1l0.3-0.2l0.2-0.4l0.9-2.1l0.1-0.1l0.1,0.8l0.1,1.7
			c0.1,0.9,0.1,0.4,0.2,0.7L44.6,17.1z M43.3,16.9c-0.6,0-1.3-0.2-1.7-0.2c0.1-0.3,0.3,0.3,0.4-1.2c0-0.3,0.1-0.4,0.1-0.7
			c0.1-0.5,0.2-0.8,0-0.9l-0.1-0.1l0,0l1.1,0.1L43,13.9l-0.2,0l-0.1,0.6c-0.1,0.6-0.2,1.5-0.2,2c0.6,0.2,0.7-0.1,1-0.6l0.1-0.1
			l0,0.2L43.3,16.9z M40.5,16.5v-0.1c0.4,0,0.2-0.2,0.2-0.8L40,15.5l-0.2,0.6c0,0.4,0.1,0,0.2,0.3l-0.6,0v-0.1c0.3,0,0.4-0.6,0.6-1
			l0.7-1.7l0.1-0.2l0.2,1.2l0.2,1.3c0.1,0.8,0.2,0.5,0.2,0.8L40.5,16.5z M37.5,16.3c0-0.3,0.3,0,0.3-0.5c0-0.5,0.1-0.8,0.1-1.5
			c0-0.3,0.1-0.4,0.1-0.7l-0.1-0.2l-0.1-0.2c0.5,0,1.1,0,1.4,0.2c0.6,0.4,0.6,1.5,0.3,2.1C38.9,16.7,38.3,16.3,37.5,16.3 M36.3,16.1
			V16c0.4,0,0.2-0.4,0.2-0.8l-0.6-0.1l-0.2,0.6l0.2,0.2l-0.1,0c-0.3,0-0.3,0-0.5,0c0.1-0.2,0.1,0,0.3-0.5l0.5-1.4l0.1-0.4l0.2-0.8
			h0.1c0.1,0.6,0.2,1.1,0.3,1.7l0.2,0.8l0.1,0.4c0.1,0.3,0.1,0.1,0.2,0.3C37,16.2,36.7,16.1,36.3,16.1 M35,15.7
			c-0.3,0.6-0.9,0.5-1.2,0.2c-0.3-0.3-0.2-0.7-0.2-1.1c0-0.3,0.1-0.6,0.1-0.9c0-0.3,0-0.6,0-0.9l-0.2-0.2c0.4,0,0.6,0,1,0v0.1
			c-0.3,0-0.3,0.1-0.3,0.4c0,0.5-0.1,1.5-0.1,2c0,0.6,0.9,0.8,0.9-0.5c0-0.5,0.1-0.9,0.1-1.3c0-0.4,0.1-0.5-0.2-0.5V13
			c0.3,0,0.4,0,0.7,0l-0.2,0.2l-0.1,0.1C35.1,13.6,35.2,15.2,35,15.7 M33,15c-0.1,0.4,0.2,0.7-0.3,0.9L32.3,16c-1.1,0-1.1-1-1.1-1.8
			c0-0.6,0.4-1.4,1-1.4c0.5,0,0.7,0.5,0.8,0h0.1v1.1l-0.2-0.2c-0.2-0.7-0.8-1-1-0.2c-0.2,0.5-0.2,1.5,0,2.1c0.1,0.4,0.4,0.4,0.6,0.3
			c0.1-0.3,0.1-0.8,0-1l-0.2,0v-0.1h1C33.3,14.9,33.1,14.7,33,15 M30.4,15.3l-0.1,0.3c-0.1,0.4,0.1,0.3-0.4,0.3c-0.4,0-0.9,0-1.4,0
			v-0.1l0.2-0.3v-2.3c0-0.4-0.2-0.1-0.2-0.4h1.7v0.9h-0.1c-0.1-0.9-0.8-0.8-0.8-0.6v1.1c0.4,0,0.4-0.3,0.4-0.5l0.1-0.2
			c0,0.3,0.1,1.3,0,1.5c-0.2-0.1,0-0.2-0.2-0.5l-0.3-0.1v1.1c0,0.3,0.5,0.2,0.8-0.1c0.3-0.4,0.1-0.5,0.3-0.5L30.4,15.3z M28.1,15.6
			c-0.2,0.3-0.4,0.3-0.7,0.3c-0.7,0.1-0.3,0-0.9,0v-0.2h0.2v-2.4l0-0.3h-0.2v-0.2c0.8,0,1.4-0.1,1.7,0.5
			C28.6,13.9,28.6,15.1,28.1,15.6 M25.2,15.8c-0.4,0.3-1.1,0.1-1.4,0.3c0-0.3,0.1-0.1,0.2-0.3c0-0.1-0.1-1.8-0.1-2.1
			c0-0.3,0-0.6-0.3-0.6v-0.1c0.7,0,1.3-0.2,1.7,0.3C25.8,13.8,25.8,15.3,25.2,15.8 M22.6,16.1V16c0.4,0,0.1-0.3,0-0.8
			c-0.3,0-0.4,0-0.6,0C22,15.6,22,15.6,22,16l0.2,0v0.1l-0.6,0l0.2-0.3l0.2-1.2c0.1-0.4,0.2-1.1,0.3-1.6h0.1l0.3,0.8l0.1,0.4
			l0.1,0.4l0.1,0.4l0.1,0.4l0.1,0.4l0.2,0.3C23.2,16.1,23,16.1,22.6,16.1 M21.3,15.7c-0.3,0.6-0.5,0.6-1,0.6l-0.7,0
			c0.1-0.3,0.3,0,0.2-0.6l-0.1-0.8c0-0.3-0.1-0.6-0.1-0.8l-0.1-0.6l-0.2,0v-0.2c0.7,0,1.2-0.2,1.6,0.2l0,0l0.2,0.3
			C21.5,14.3,21.5,15.1,21.3,15.7 M18.3,16.5l0.2-0.3l-0.1-1.6c-0.1-0.4,0-0.9-0.2-1L18,13.5l1-0.1v0.1l-0.2,0.2
			c0,0.5,0.1,1.4,0.2,2l0,0.4c0.1,0.5,0.3,0.2,0.3,0.4L18.3,16.5z M17,16.6L17,16.6l-0.2,0.2l-0.2-1.2l0.3,0.5
			c0.3,0.6,0.9,0.5,0.8-0.2c-0.1-0.5-0.7-0.4-1-0.9c-0.3-0.4-0.4-1.5,0.3-1.5l0.4,0.1l0-0.2h0.1c0.1,0.3,0.2,0.7,0.2,1
			c-0.2-0.1,0-0.1-0.3-0.4c-0.5-0.6-0.8-0.2-0.7,0.3c0.1,0.4,0.8,0.4,1.1,0.8c0.1,0.2,0.2,0.5,0.2,0.7C18.1,16.7,17.5,16.8,17,16.6
			 M16.6,16.7c-0.6,0-0.5,0.3-1-0.5l-0.2-0.3l-0.1-0.2l-0.1-0.1l0.2,1.1l0.3,0.2c0,0.2,0,0.1-0.4,0.2l-0.5,0
			c0.1-0.3,0.3,0.2,0.1-1.1l-0.3-1.6l-0.3-0.2V14c0.5,0,1.3-0.4,1.7,0.1c0.3,0.4,0.2,1.2-0.2,1.3l0.4,0.7l0.1,0.2
			C16.4,16.5,16.4,16.6,16.6,16.7L16.6,16.7L16.6,16.7z M13.9,17.2l-0.4,0.1l-0.9,0.1l0.2-0.2l-0.2-1.2l-0.1-0.4
			c-0.1-0.6-0.1-1-0.4-1v-0.1c0.4,0,1.3-0.3,1.6-0.3l0.2,0.9l-0.1-0.1c-0.2-0.3,0-0.6-0.7-0.6c-0.5,0-0.1,0.6-0.1,1.3
			c0.4,0,0.3-0.3,0.3-0.8l0.3,1.5h-0.1c0-0.3-0.2-0.6-0.5-0.6c0,0.3,0,0.5,0.1,0.7l0.2,0.6c0.6,0,0.7-0.6,0.7-1h0.1c0,0.3,0,0.6,0,1
			L13.9,17.2z M11.8,14.6l-0.1,0.3v2.8c-0.2,0-0.3-0.2-0.5-0.6l-0.8-1.5L10.1,15l-0.2-0.1c0.3-0.1,0.7-0.2,1-0.2l-0.2,0.2
			c0,0.4,0.4,1,0.6,1.3l0.2,0.4l0-0.5c0-0.4,0-1,0-1.4l-0.3-0.1l0.6-0.2L11.8,14.6z M10.5,17.9c-0.5,0-0.8,0.4-1,0.2
			c0.3-0.1,0.2-0.3,0.1-0.6c-0.1-0.4-0.5-1.9-0.6-2l-0.3-0.2l0.1-0.1L9.4,15c0.4-0.1,0.3-0.1,0.3,0l-0.2,0.3l0.1,0.4l0.6,2l0.3,0.1
			L10.5,17.9L10.5,17.9z M9.1,18.3l-0.9-0.9l0,0l0,0l-0.1-0.1L7.9,17l0,0l-0.3-0.3l-0.3-0.3l0.5,1.7c0.1,0.2,0.1,0.3,0.4,0.4v0.1
			c-0.3,0.1-0.4,0.2-0.7,0.1l0.2-0.1c0-0.4-0.5-1.7-0.6-2.2l-0.4-0.5v-0.1c0.7-0.2,0.4-0.3,1,0.2l0.7,0.8l0.4,0.4l-0.1-0.5l-0.3-1
			L8,15.4c0.3-0.1,0.6-0.3,0.7-0.1l-0.1,0.2c0,0.3,0.5,2,0.7,2.5l0.1,0.4L9.1,18.3z M6.2,19.3l-0.4-0.1L5.7,19
			c-0.4-0.4-0.5-1.6-0.8-2.2c-0.1-0.3-0.1-0.1-0.3-0.3l0.9-0.3c-0.2,0.6-0.4-0.4,0.1,1.5l0.1,0.4C5.9,18.4,6,19,6.4,19
			c0.7,0,0.4-0.9,0.3-1.3l-0.2-0.6l-0.2-0.6l-0.1-0.3l-0.3-0.1L6.6,16c0,0.3-0.1,0.1-0.1,0.3C6.4,17.2,7.8,19.3,6.2,19.3 M55.3,16.6
			L55.3,16.6l-0.5-0.7l-0.1-0.2c-0.3-0.4-0.7-0.6-1.1-0.9l-0.3-0.2L53,14.4c-2.4-1.2-4.4-1.6-7-2.1c-0.6-0.1-1.2-0.2-1.7-0.3
			c-1.2-0.2-2.4-0.3-3.6-0.4c-0.8-0.1-2.1-0.1-2.8-0.2c-0.7-0.1-2.3-0.1-2.8-0.2c-0.8-0.1-3.1,0-3.9-0.1c-0.3,0-4-0.1-4.3,0
			c-0.6,0.1-1.3,0-2,0c-0.6,0.1-1.3,0-1.9,0.1c-0.3,0-0.8,0-0.9,0l-0.9,0.1c-0.6,0-1.3,0.1-1.9,0.1c-0.6,0.1-1.2,0.1-1.8,0.2
			l-0.9,0.1c-0.9,0.1-1.8,0.2-2.7,0.3c-1.5,0.2-2.9,0.5-4.2,0.8C9,13,8.5,13.1,7.9,13.3c-0.3,0.1-0.5,0.2-0.8,0.3
			c-1,0.3-1.9,0.7-2.8,1.3C4,15,4,15,3.8,15.2l-0.3,0.2C3.2,15.7,3.1,15.8,3,16c-0.2,0.2-0.3,0.4-0.4,0.7L2.5,17v7.1l0.1,0.3L3,24.9
			L3.2,25l0.2,0.2l0.3,0.1l0.6,0.2c0.6,0.2,4.5,1.5,4.9,1.7c0.4,0.1,0.8,0.3,1.2,0.4l0.6,0.2l0.6,0.2l0,0.1l0,0l-0.2,0.1l-0.2,0.1
			L11,28.5l-0.2,0.1l-1.6,0.8l-0.6,0.3c-0.4,0.2-0.9,0.4-1.2,0.7L7,30.7l-0.2,0.2c-0.2,0.2-0.2,0.3-0.2,0.6c0,2.2,0,4.4,0,6.7l0,0
			l0.1-0.3c0.2-0.3,0.5-0.5,0.8-0.7l0.7-0.4l0,0l0,0l1.7-0.9c0.3-0.1,0.5-0.3,0.8-0.4l0.1,0l0.4-0.2v-2.7c0.1,0.1,3.9,0,4.4,0
			c0.9,0,1,0,1.7-0.6c0.2-0.2,0.4-0.3,0.5-0.6c0.1-0.3,0.2-0.6,0.2-1v-6.2L18,23.8l-0.1-0.2c-0.4-0.6-1.3-0.8-1.9-1l-0.1,0l-2.6-0.9
			l0,0l-0.7-0.3h0l-0.8-0.3C10.8,21,9.9,20.7,9,20.4l-0.7-0.2l0.5-0.2c0.9-0.3,1.9-0.5,2.8-0.7l1.2-0.2c3.3-0.6,6.6-1,10-1.1
			c0.2,0,0.3,0,0.6,0c0.3,0,0.4,0,0.7,0h0.7c0.2,0,0.4,0,0.7,0l4.4,0c0.9,0,1.8,0,2.7,0c0.6,0,3.4,0.1,3.8,0.2l2.6,0.2
			c0.6,0,1.9,0.2,2.5,0.3c1.3,0.2,2.4,0.3,3.7,0.5c1.2,0.2,2.9,0.5,4,0.9l0.5,0.2l-0.7,0.3L44,22l-0.1,0l-0.2,0.1l-1.3,0.4h0
			l-0.2,0.1c-0.5,0.2-0.9,0.2-1.4,0.4l-0.1,0c-0.3,0.1-0.6,0.3-0.8,0.6c-0.1,0.2-0.2,0.5-0.2,0.8V31c0,0.5,1.3,1.6,1.6,1.6h5.1v2.6
			l0.6,0.4c0.5,0.2,1.1,0.5,1.6,0.8l0.3,0.2l0.5,0.3l0.7,0.4l0.8,0.6l0.2,0.3l0-0.1v-6.6l-0.1-0.2c-0.3-0.4-0.4-0.7-0.8-1
			c-0.8-0.5-1.9-0.9-2.7-1.4l-1.4-0.7l0.6-0.2l0.6-0.2c0.8-0.3,1.7-0.6,2.5-0.8c0.7-0.2,3.3-1.1,3.8-1.2c0.4-0.2,0.7-0.4,1-0.6
			l0.3-0.3l0,0l0.3-0.7v-6.9L55.3,16.6z"/>
		<path class="st2" d="M53.8,45.4l-1.8-1.2l-0.4-0.3c-0.7-0.4-1.9-1.2-2.6-1.7l-0.8-0.5l0.2-0.2c0.5-0.4,0.9-0.8,1.5-1.2l0.4-0.3
			c0.6-0.5,1.5-1.2,0.6-2.2c-0.3-0.3-0.8-0.7-1.2-0.9l-0.1,0l0,0l0,0l-0.4-0.2L49,36.6l-0.1-0.1l0,0l-0.1,0l0,0l-1.5-0.7l0,0l0,0
			l0,0c-0.4-0.2-0.3-0.2-0.7-0.2v12.7l0,0.2c0,0.4,0.2,0.3,0.7,0.7l1,0.7c0.5,0.3,1,0.7,1.5,1l0.5,0.3V47l0.9-0.3
			c0.4-0.1,2.8-1,2.9-1L53.8,45.4z"/>
		<path class="st2" d="M10.2,35.9L10.2,35.9L10.2,35.9l-0.1,0l-0.5,0.3l-0.2,0.1l-0.3,0.2l-0.3,0.2L8.1,37l-0.2,0.1l-0.6,0.5
			l-0.2,0.2l-0.3,0.4l-0.2,0.3v0.4l0,0.1c0.2,0.4,0.2,0.4,0.5,0.7l0.6,0.5L8,40.3l1.2,0.9l0.4,0.3l-0.7,0.5l-0.8,0.5
			c-0.9,0.6-2,1.3-3,1.9l-1.5,1l2.8,1l1,0.3v4.2l1.2-0.8l2.1-1.5l0.4-0.4v-13l-0.3,0.1L10.2,35.9z"/>
		<polygon class="st2" points="25.7,6.9 28.2,6.9 28.2,9.4 27.5,9.4 27.5,10.9 30.4,10.9 30.4,9.4 29.8,9.4 29.8,6.9 32.3,6.9 
			32.3,7.4 33.8,7.4 33.8,4.6 32.3,4.6 32.3,5.1 29.8,5.1 29.8,2.6 30.5,2.6 30.5,1 27.5,1 27.5,2.6 28.2,2.6 28.2,5.1 25.7,5.1 
			25.7,4.6 24.2,4.6 24.2,7.4 25.7,7.4 		"/>
		<polygon class="st2" points="31.8,1.8 31.8,2.3 31.3,2.3 31.3,3.2 31.8,3.2 31.8,3.7 32.7,3.7 32.7,3.2 33.1,3.2 33.1,2.3 
			32.7,2.3 32.7,1.8 		"/>
		<polygon class="st2" points="25.3,8.1 25.3,8.6 24.8,8.6 24.8,9.5 25.3,9.5 25.3,10 26.1,10 26.1,9.5 26.6,9.5 26.6,8.6 26.1,8.6 
			26.1,8.1 		"/>
		<polygon class="st2" points="31.8,8.1 31.8,8.6 31.4,8.6 31.4,9.5 31.8,9.5 31.8,10 32.7,10 32.7,9.5 33.2,9.5 33.2,8.6 32.7,8.6 
			32.7,8.1 		"/>
		<polygon class="st2" points="25.3,1.9 25.3,2.3 24.9,2.3 24.9,3.2 25.3,3.2 25.3,3.7 26.2,3.7 26.2,3.2 26.7,3.2 26.7,2.3 
			26.2,2.3 26.2,1.9 		"/>
		<g>
			<path class="st2" d="M50.7,15.6c-0.2,0.3-0.1,0.3-0.2,0.6l-0.2,0.7c0.2,0,0.4,0.2,0.6-0.3c0.1-0.3,0.2-0.4,0.2-0.7L50.7,15.6z"/>
		</g>
		<polygon class="st2" points="48,16.2 47.8,16.7 48.3,16.8 48.3,15.8 		"/>
		<polygon class="st2" points="52.2,18.2 52.6,18.3 52.7,17.3 		"/>
		<g>
			<path class="st2" d="M14.9,14.1c0,0.6,0.2,0.8,0.2,1.2c0.5-0.1,0.4-0.3,0.4-0.6C15.5,14,14.9,13.9,14.9,14.1"/>
		</g>
		<polygon class="st2" points="44.4,15.7 44.3,15.8 44.3,16 44.8,16 44.7,15.1 		"/>
		<path class="st2" d="M40.4,14.4l-0.1,0.3l-0.1,0.2l-0.2,0.5l0.5,0C40.6,15.1,40.5,14.7,40.4,14.4C40.5,14.4,40.4,14.4,40.4,14.4z"
			/>
		<path class="st2" d="M24.4,13.1c-0.1,0.3,0,1.7,0.1,2.1l0,0.4l0.2,0.2c0.8,0,0.5-2.2,0.2-2.6L24.4,13.1z"/>
		<path class="st2" d="M36.2,14l-0.3,0.9L36,15l0.4,0C36.5,14.8,36.3,14.3,36.2,14L36.2,14L36.2,14z"/>
		<path class="st2" d="M27.3,13l-0.2,0.6c0,0.3,0,0.5,0,0.7c0,0.5-0.1,1.4,0.2,1.4c0.8,0,0.6-1.7,0.5-2.2C27.8,13.3,27.6,13,27.3,13
			"/>
		<path class="st2" d="M20.1,13.5l0.2,2l0.1,0.6c0.8,0,0.5-1.8,0.3-2.2C20.6,13.3,20.1,13.3,20.1,13.5"/>
		<polygon class="st2" points="22.1,15.1 22.6,15.1 22.3,14.3 22.3,14.1 		"/>
		<path class="st2" d="M38.5,13.4L38.4,14l-0.1,0.6L38.2,16l0.4,0.1c0.5-0.3,0.6-2,0.3-2.5L38.5,13.4z"/>
		<path class="st2" d="M29.8,47L29.8,47l0.2,0.2c0.2,0.2,0.6,0.4,0.9,0.4c0.4,0,1-0.3,1.1-0.6c-0.3,0-0.6,0.2-1.1,0.2
			C30.3,47.2,30.1,47.1,29.8,47L29.8,47z"/>
		<path class="st2" d="M30.6,50.4c0.1,0.3,0.8,0.7,1.1,0.7c0.5,0,0.9-0.4,1.1-0.7c-0.5,0.1-0.6,0.2-1.2,0.2
			C31.3,50.6,30.9,50.5,30.6,50.4"/>
		<path class="st2" d="M27.8,45.9l0.1,0.2l0,0l0.1,0.1c0.3,0.2,0.6,0.4,0.9,0.4c0.3,0,1-0.4,1.1-0.7c-0.6,0.2-0.4,0.2-1.3,0.2
			L27.8,45.9z"/>
		<path class="st2" d="M24.7,46.4c0.3,0.1,0.6,0.2,1,0.1l0.4-0.2l0.3-0.3c-0.3,0-0.8,0.4-1.7,0.1l-0.5-0.1l0,0.1L24.7,46.4z"/>
		<path class="st2" d="M25.1,50.4c0.1,0.2,0.7,0.6,1.1,0.7c0.3,0,0.9-0.3,1.1-0.6l-0.4,0.1C25.8,50.8,25.6,50.4,25.1,50.4"/>
		<path class="st2" d="M32.6,46.5c0.4,0,1-0.4,1.1-0.7c-0.3,0.2-0.8,0.2-1.2,0.2c-0.4,0-0.7-0.2-1-0.2
			C31.6,46.2,32.2,46.5,32.6,46.5"/>
		<path class="st2" d="M32.2,48.9l-0.6-0.2l0.1,0.1c0.3,0.3,0.7,0.5,1.1,0.5c0.5,0,1-0.4,1.1-0.6C33.2,48.9,33.1,49.1,32.2,48.9"/>
		<path class="st2" d="M26.4,47.2L25.9,47l0,0l0,0l0.2,0.2c0.2,0.2,0.6,0.4,0.9,0.4c0.4,0,1-0.3,1.1-0.6
			C27.8,47.1,27.3,47.4,26.4,47.2"/>
		<path class="st2" d="M26.1,48.8c-0.4,0.1-0.6,0.2-1.1,0.2c-0.5,0-0.7-0.2-1.1-0.2c0.2,0.3,0.7,0.6,1,0.6
			C25.5,49.4,26,49.1,26.1,48.8"/>
		<path class="st4" d="M17.8,39.3h10.9v0c-0.3,0-0.6,0-0.8-0.1l0,0l-0.3-0.1l0,0l-0.7-0.3l-0.3-0.2L26,38.1l-0.3-0.3l0,0l0,0l0,0
			l-1-1c-0.3-0.3-0.6-0.4-0.9-0.6l-0.1-0.1c-0.5-0.2-1-0.2-1.5-0.3c-0.6-0.1-1.2-0.3-1.8-0.5l-0.5-0.2l-0.2-0.1l-0.5-0.3l-0.5-0.4
			l0,0l-0.4-0.5l-0.1-0.2l-0.2-0.3l-0.1-0.1l-0.5-0.8h-6.1v35.3c0,0.3,0,0.5,0.1,0.7c0,0.4,0.1,0.9,0.3,1.4c0.2,0.8,0.9,1.9,1.6,2.4
			l0.5,0.3c0.9,0.6,2,0.9,3.1,0.9h6.3c1.5,0,2.5,0.1,4,0.8c1.2,0.6,1.1,0.7,1.9,1.3c0.3-0.2,0.6-0.5,0.9-0.7l0.5-0.3
			c0.9-0.5,1.9-1,3.1-1c2.1-0.1,4.3,0,6.5,0c0.6,0,1.1,0,1.6-0.1c0.7-0.1,1.3-0.2,1.9-0.5c0.5-0.2,1-0.5,1.4-0.9
			c1.5-1.5,1.7-2.9,1.7-5.1V32.4h-6c0,0.4-0.2,0.8-0.5,1.1l0,0l0,0l0,0l0,0l-0.7,0.8l0,0L39,34.6c-0.3,0.3-1,0.7-1.4,0.8l-0.1,0
			c-1.3,0.5-2.5,0.3-3.3,0.8l-0.3,0.2l-0.1,0.1l-0.1,0.1l-1.8,1.7l-0.1,0.1l0,0c-0.3,0.2-0.5,0.4-0.9,0.6l-0.1,0
			c-0.5,0.2-1,0.4-1.6,0.4l10.9,0v24.2L40.1,64c-0.1,0.8-0.2,1.1-0.6,1.7L39,66.4l-0.1,0.1l-0.2,0.2c-0.4,0.2-0.7,0.3-1.1,0.5
			c-1.3,0.4-4.3,0-5.8,0.3c-0.7,0.1-1.6,0.5-2.1,0.9l-0.5,0.5l-0.3-0.2l-0.1-0.1l-0.2-0.2l-0.3-0.2c-0.3-0.2-0.8-0.5-1.2-0.6
			l-0.2-0.1c-1.1-0.4-4.9-0.1-5.7-0.2c-0.3-0.1-0.8-0.2-1.2-0.4l-0.2-0.1l-0.2-0.1l0,0l-0.5-0.4l0,0l-0.3-0.3l-0.3-0.5l-0.2-0.3
			c-0.1-0.3-0.2-0.6-0.2-0.9c0-0.3-0.1-0.6-0.1-1L17.8,39.3L17.8,39.3z"/>
		<path class="st5" d="M54.6,24.5c-0.5,0.5-1.2,0.8-1.8,1c-0.3,0.1-0.6,0.2-0.8,0.3c-0.6,0.2-1.2,0.3-1.8,0.5
			c-0.6,0.2-1.2,0.4-1.8,0.6c-0.7,0.2-1.4,0.5-2.1,0.7l-0.2,0c-0.7-0.3-1.3-0.7-2-1c-0.5-0.2-0.9-0.5-1.4-0.7
			c-0.4-0.2-0.9-0.4-1.3-0.6c-0.4-0.2-0.8-0.5-1-0.9c-0.3-0.4-0.1-0.7,0.2-0.8c0.5-0.2,1.1-0.4,1.6-0.6c0.6-0.2,1.1-0.4,1.7-0.6
			c0.4-0.1,0.7-0.2,1.1-0.4c1.2-0.4,2.5-0.8,3.7-1.3c0.3-0.1,0.5-0.2,0.8-0.3h0.4c0.8,0.3,1.6,0.6,2.4,1c0.6,0.3,1.2,0.6,1.7,1.1
			c0.4,0.4,0.8,0.8,0.9,1.3l0.1,0.2L54.6,24.5z M47.2,28.9c1.1,0.6,2.1,1,3.2,1.7l0,0.1c-0.3-0.1-0.6-0.1-1-0.1
			c0.5,0.4,0.9,0.8,1.3,1.2c-0.5-0.1-0.9-0.2-1.4-0.2c0.5,0.4,0.9,0.8,1.4,1.3c-0.5-0.1-0.9-0.2-1.3-0.3l0,0
			c0.4,0.4,0.9,0.8,1.4,1.2c-0.5-0.1-0.9-0.2-1.4-0.3l0,0c0.5,0.4,0.9,0.9,1.4,1.3c-0.5-0.1-1-0.2-1.4-0.3l0,0
			c0.4,0.4,0.9,0.8,1.3,1.2l0,0.1c-0.5-0.1-0.9-0.2-1.4-0.4c0.4,0.4,0.7,0.8,1.1,1.1l0,0l-0.7-0.3c-0.6-0.3-1.2-0.6-1.8-0.9
			l-0.7-0.4l-0.1-0.2c0-0.8,0-1.6,0-2.4v-0.3h-0.2c-1.7,0-3.3,0-5,0l-0.4-0.2l-0.5-0.3c0.4,0.1,0.7,0.1,1.1,0.1l0,0
			c-0.4-0.3-0.9-0.6-1.4-1c0.5,0,0.9,0.1,1.4,0.1c-0.5-0.4-1-0.8-1.5-1.3v0l1.4,0.2l0,0c-0.5-0.4-0.9-0.8-1.4-1.3
			c0.5,0.1,0.9,0.2,1.4,0.3l0,0c-0.5-0.4-0.9-0.8-1.4-1.2l0,0c0.4,0.1,0.9,0.2,1.3,0.3l0,0c-0.5-0.4-0.9-0.9-1.4-1.4
			c0.5,0.2,0.9,0.3,1.4,0.5c-0.3-0.4-0.6-0.8-0.8-1.1c1,0.5,2.1,1,3.2,1.6C45.1,27.8,46.2,28.3,47.2,28.9 M50.7,38.8l-0.3,0.4
			c-0.5,0.4-1,0.8-1.5,1.2c-0.4,0.3-0.8,0.6-1.1,1c-0.3,0.3-0.6,0.5-0.9,0.8v-6.4c0.3,0.2,0.6,0.3,0.8,0.4c0.5,0.3,1,0.5,1.6,0.8
			c0.4,0.2,0.9,0.5,1.2,0.8C50.7,38.2,50.9,38.4,50.7,38.8 M53.3,45.4c-0.6,0.2-1.2,0.4-1.8,0.7c-0.5,0.2-0.9,0.3-1.4,0.5l-0.2,0.3
			c0,1.2,0,2.3,0,3.6c-0.3-0.2-0.6-0.4-0.9-0.6c-0.7-0.5-1.4-1-2.1-1.4l-0.1-0.2c0-1.7,0-3.3,0-5l0.2-0.3c0.3-0.3,0.7-0.6,1.1-0.9
			C49.9,43.2,51.6,44.3,53.3,45.4 M46.2,33c0,11.8,0,23.7,0,35.5c0,0.6-0.2,1.2-0.5,1.7c-0.2,0.5-0.5,0.8-0.8,1.2
			c-0.3,0.3-0.6,0.6-1,0.8c-0.6,0.4-1.4,0.6-2.1,0.7l-0.5,0c-2.3,0-4.6,0-6.9,0c-1.1,0-2.1,0.2-3.1,0.7c-0.7,0.3-1.4,0.8-2,1.3
			L29,75c-0.4-0.3-0.8-0.6-1.3-0.9c-0.7-0.4-1.4-0.7-2.2-0.8c-0.4-0.1-0.8-0.1-1.2-0.1c-2.5,0-4.9,0-7.4,0c-0.9,0-1.7-0.2-2.5-0.6
			l-0.7-0.4c-0.4-0.3-0.8-0.7-1.1-1.2c-0.3-0.4-0.5-1-0.6-1.5c-0.2-0.9-0.3-1.8-0.2-2.7c0-3.5,0-7.1,0-10.6c0-7.6,0-15.3,0-22.9
			v-0.3h5.5c0.2,0.4,0.5,0.9,0.8,1.3c0.5,0.6,1.2,1.1,1.9,1.5c0.6,0.3,1.3,0.5,1.9,0.6c0.5,0.1,0.9,0.1,1.4,0.2
			c0.6,0.2,1.1,0.5,1.5,1c0.5,0.5,1,1,1.5,1.4h-8.9v0.2c0,8.1,0,16.2,0,24.3c0,0.3,0.1,0.5,0.1,0.8c0.1,0.4,0.2,0.8,0.3,1.3
			c0.6,1.2,1.5,1.9,2.8,2.1l0.7,0.1c1.3,0,2.6,0,3.9,0c1,0,2,0.3,2.8,0.9c0.3,0.2,0.6,0.5,1,0.7l0.7-0.6c0.3-0.2,0.7-0.5,1-0.7
			c0.6-0.3,1.3-0.4,2.1-0.4c1.2,0,2.4,0,3.6,0c1.1,0,2-0.4,2.8-1.1c0.5-0.4,0.8-1,1-1.6c0.2-0.5,0.2-1.1,0.2-1.6
			c0-8.1,0-16.1,0-24.2v-0.3h-9l0.5-0.4l0.4-0.4c0.6-0.5,1-1.2,1.8-1.5c0.3-0.1,0.7-0.2,1-0.3c0.9-0.1,1.7-0.3,2.5-0.6
			c0.7-0.3,1.2-0.7,1.7-1.2c0.5-0.4,0.8-1,1.1-1.6l0.2-0.1h3h2.3L46.2,33L46.2,33z M11.1,32.2v0.2V35L11,35.1
			c-0.6,0.3-1.3,0.7-1.9,1c-0.4,0.2-0.9,0.5-1.3,0.7c0.3-0.4,0.7-0.8,1-1.1l0,0c-0.4,0.1-0.9,0.2-1.4,0.3c0.5-0.4,0.9-0.8,1.3-1.3
			l0-0.1c-0.5,0.1-0.9,0.2-1.4,0.3c0.5-0.4,0.9-0.9,1.4-1.3l0-0.1c-0.4,0.1-0.9,0.2-1.4,0.3c0.5-0.4,0.9-0.8,1.4-1.2l0,0
			c-0.4,0.1-0.8,0.1-1.3,0.2c0.5-0.4,0.9-0.8,1.3-1.2l0,0c-0.4,0.1-0.8,0.2-1.3,0.2l0,0L8,31.3l0.6-0.6l-0.8,0.1l0,0l0.4-0.3
			c1-0.5,1.9-1,2.9-1.5c0.7-0.3,1.3-0.7,2-1.1c0.5-0.3,1.1-0.6,1.6-0.8c0.7-0.4,1.4-0.7,2.2-1.1l0.5-0.3l0,0c-0.3,0.4-0.7,0.8-1,1.3
			c0.5-0.2,0.9-0.3,1.4-0.5l0,0c-0.5,0.4-0.9,0.9-1.3,1.3l0,0c0.5-0.1,0.9-0.2,1.4-0.4c-0.5,0.4-1,0.9-1.4,1.3l0,0
			c0.5-0.1,0.9-0.2,1.4-0.3c-0.5,0.5-1,0.9-1.5,1.3c0.5-0.1,1-0.2,1.5-0.2l0,0.1c-0.5,0.4-1,0.8-1.5,1.3c0.5,0,0.9-0.1,1.4-0.1l0,0
			c-0.4,0.3-0.9,0.6-1.3,1l0,0c0.3,0,0.6-0.1,1-0.1l-0.8,0.4L11.1,32.2L11.1,32.2z M11.1,48.4L11,48.6c-0.4,0.3-0.8,0.5-1.2,0.8
			c-0.5,0.4-1.1,0.8-1.7,1.2v-3.8c-1.1-0.4-2.2-0.8-3.4-1.2l0.2-0.2c0.7-0.5,1.5-1,2.2-1.5c0.6-0.4,1.2-0.8,1.8-1.3l0.7-0.5h0.2
			c0.4,0.3,0.7,0.6,1.1,0.8l0.1,0.2C11.1,45.1,11.1,46.7,11.1,48.4 M9,40.6c-0.3-0.3-0.7-0.6-1-0.8l-0.5-0.4c-0.3-0.3-0.3-0.8,0-1.1
			c0.3-0.3,0.6-0.5,1-0.7c0.8-0.4,1.6-0.8,2.3-1.3l0.2-0.1v6.2l-0.3-0.2c-0.3-0.3-0.7-0.6-1.1-0.9L9,40.6z M9.6,26.9
			c-0.8-0.3-1.7-0.6-2.5-0.9c-0.4-0.2-0.9-0.3-1.3-0.4c-0.6-0.2-1.1-0.4-1.7-0.6c-0.4-0.1-0.7-0.4-0.8-0.7c-0.2-0.3,0-0.7,0.2-1
			c0.4-0.8,1.2-1.2,1.9-1.6c0.9-0.5,1.9-0.9,3-1.2h0.2c0.9,0.3,1.7,0.6,2.6,0.9c0.4,0.1,0.7,0.2,1.1,0.4c0.6,0.2,1.3,0.4,1.9,0.7
			c0.6,0.2,1.2,0.4,1.8,0.6c0.4,0.1,0.9,0.3,1.3,0.5c0.3,0.1,0.6,0.3,0.6,0.7l-0.3,0.5c-0.3,0.4-0.8,0.7-1.2,0.9
			c-0.7,0.4-1.5,0.7-2.2,1.1c-0.6,0.3-1.2,0.6-1.7,0.9l0,0.1l-0.6,0.1C11,27.4,10.3,27.2,9.6,26.9 M25.6,26.1
			c0.3,0.2,0.6,0.4,0.9,0.6c0.3,0.2,0.7,0.3,1,0.4c0.4,0.1,0.7,0.1,1.1,0.2V28c-0.3-0.1-0.6-0.1-0.9-0.2l-0.3,0.4l0.1,0.2
			c0.3,0.1,0.6,0.2,0.9,0.3c0.5,0.1,1,0,1.5-0.1l0.5-0.2l-0.3-0.6c-0.3,0.1-0.6,0.2-0.8,0.2v-0.7c1.2-0.2,2.3-0.5,3.2-1.5
			c-0.2,0.6-0.5,1-0.9,1.4c-0.3,0.3-0.5,0.6-0.5,1v0.5L31,29.2c-0.5,0.4-1,0.6-1.7,0.7c-0.6,0.1-1.2,0-1.7-0.3l-0.7-0.4l0-0.2
			c0.2-0.5,0.1-1-0.2-1.4l-0.3-0.3C26.1,26.9,25.8,26.5,25.6,26.1L25.6,26.1z M29.5,21v-1.1c1.5,0.2,2.8,1.4,3.2,2.6
			C31.8,21.6,30.7,21.2,29.5,21 M25.5,22.5c0.4-1.2,1.6-2.4,3-2.6V21C27.3,21.2,26.3,21.6,25.5,22.5 M26.6,22.6
			c0.5-0.1,1-0.2,1.5-0.3c0.3,0,0.7,0,1-0.1c0.7,0,1.4,0.1,2,0.3c0.6,0.2,1.2,0.4,1.7,0.8l0.2,0.5c0,0.4,0,0.7-0.1,1.1l-0.2,0.4
			c-0.4,0.3-0.8,0.5-1.3,0.6C31,25.9,30.5,26,30.1,26c-0.4,0-0.9,0.1-1.3,0.1c-0.7,0-1.3-0.1-2-0.2c-0.5-0.1-0.9-0.3-1.3-0.5
			l-0.3-0.4c0-0.5,0-1,0-1.5l0.1-0.1C25.6,23,26.1,22.8,26.6,22.6 M39.9,39.7v0.3c0,7.9,0,15.9,0,23.9c0,0.7-0.2,1.3-0.6,1.8
			c-0.6,0.8-1.3,1.1-2.2,1.3l-0.5,0c-1.1,0-2.3,0-3.4,0c-0.6,0-1.2,0-1.8,0.2c-0.6,0.1-1.1,0.4-1.6,0.8l-0.4,0.3l-0.3,0
			c-0.6-0.5-1.3-0.8-2.1-1c-0.4-0.1-0.8-0.2-1.2-0.2c-1.5,0-2.9,0-4.4,0c-0.6,0-1.2-0.3-1.7-0.6c-0.3-0.3-0.7-0.6-0.8-1
			c-0.1-0.3-0.3-0.7-0.3-1s-0.1-0.7-0.1-1.1c0-7.8,0-15.6,0-23.3v-0.3H39.9z M27.5,38.6c-0.4-0.2-0.9-0.4-1.2-0.8
			c-0.5-0.5-1-1-1.5-1.4c-0.4-0.4-0.9-0.6-1.4-0.7c-0.7-0.1-1.3-0.2-2-0.3c-0.7-0.2-1.4-0.5-2-1c-0.4-0.3-0.7-0.7-1-1.1l-0.3-0.5
			c2.5-1,5-2,7.5-3l0,0c-1,1-2,2-2.9,3l0,0c1.5-1.1,3.1-2.1,4.7-3.2c-0.5,1.7-1.1,3.4-1.6,5l0,0l0.1-0.1c0.2-0.3,0.3-0.7,0.5-1
			c0.3-0.5,0.6-1,0.8-1.5c0.3-0.5,0.5-0.9,0.7-1.4l0.4-0.7c0,0.3,0.1,0.5,0.1,0.7c0,0.3,0,0.7,0.1,1c0,0.7,0.1,1.3,0.1,2
			c0,0.4,0,0.8,0.1,1.1c0.1,0.6,0.1,1.2,0.2,1.8l0,0.1l0,0c0-0.6,0.1-1.1,0.1-1.7c0.1-0.8,0.1-1.5,0.2-2.3c0.1-0.6,0.1-1.2,0.2-1.8
			c0-0.3,0.1-0.5,0.1-0.8l0.1-0.2c0.9,1.6,1.7,3.1,2.6,4.7l0.1,0c-0.5-1.7-1-3.4-1.5-5.1c1.5,1,2.9,2.1,4.4,3.1l0-0.1
			c-0.9-0.9-1.8-1.9-2.7-2.8l0,0c1.3,0.5,2.5,1,3.8,1.5c1.3,0.5,2.5,1,3.8,1.5L39.9,33c-0.3,0.5-0.7,0.9-1.1,1.2
			c-0.6,0.5-1.3,0.9-2.1,1.1c-0.4,0.1-0.9,0.2-1.3,0.2c-0.6,0.1-1.1,0.2-1.6,0.5c-0.5,0.3-1,0.8-1.4,1.3l-0.6,0.5
			c-0.4,0.4-0.9,0.7-1.5,0.9C29.3,39,28.4,39,27.5,38.6 M39.5,24.5c0,1.8,0,3.7,0,5.5c0,0.5,0,1,0.2,1.5l0.3,0.5
			c-0.3-0.1-0.7-0.3-1.1-0.4c-0.6-0.2-1.1-0.4-1.7-0.7c-0.8-0.3-1.5-0.6-2.3-0.9c-0.8-0.3-1.7-0.7-2.6-1L32,28.8l-0.2-0.4
			c0-0.3,0.1-0.5,0.3-0.7c0.5-0.5,0.9-1.2,1.2-1.9l0.3-0.4c0.5-0.3,0.7-1.1,0.4-1.7l-0.2-0.2l-0.3-0.7c-0.1-0.5-0.3-1-0.6-1.5
			c-0.2-0.4-0.5-0.7-0.8-1c-0.6-0.5-1.3-0.9-2-1.1c-0.7-0.2-1.3-0.1-2,0s-1.3,0.5-1.8,0.9c-0.5,0.5-1,1-1.3,1.6
			c-0.2,0.4-0.3,0.8-0.4,1.2l-0.2,0.3c-0.8,0.6-0.7,1.7,0.2,2.2l0.3,0.5c0.2,0.3,0.3,0.6,0.4,0.8c0.2,0.3,0.5,0.6,0.8,0.9l0.1,0.9
			l-0.1,0.1c-0.8,0.3-1.6,0.6-2.4,1c-0.4,0.2-0.8,0.3-1.3,0.5c-0.4,0.2-0.8,0.3-1.3,0.5c-0.8,0.3-1.7,0.7-2.5,1
			c-0.3,0.1-0.5,0.2-0.8,0.3l0.3-0.4c0.1-0.3,0.2-0.5,0.2-0.8c0-0.3,0-0.6,0-0.8c0-2,0-4,0-6c0-0.5-0.2-0.8-0.6-1.1
			c-0.5-0.4-1-0.5-1.6-0.7c-0.5-0.2-1-0.3-1.5-0.5c-0.4-0.1-0.7-0.2-1.1-0.3c-1-0.3-2.1-0.7-3.1-1.1c-0.3-0.1-0.7-0.2-1-0.3v-0.1
			c0.6-0.1,1.1-0.3,1.7-0.4c0.4-0.1,0.8-0.2,1.2-0.3c0.4-0.1,0.8-0.2,1.3-0.2c0.7-0.1,1.5-0.3,2.2-0.3c0.6-0.1,1.1-0.1,1.7-0.2
			s1.1-0.1,1.7-0.2c0.4,0,0.7-0.1,1.1-0.1c0.6,0,1.3-0.1,1.9-0.2l0.7,0c0.4,0,0.8,0,1.2,0c0.9,0,1.8-0.1,2.7-0.1c1.3,0,2.7,0,4,0
			c0.3,0,0.6,0,0.9,0c0.6,0,1.2,0,1.8,0c0.6,0,1.3,0,1.9,0.1c0.7,0,1.3,0.1,2,0.1c0.5,0,1,0.1,1.5,0.1c0.5,0,0.9,0.1,1.4,0.2
			c0.3,0,0.6,0,0.9,0.1c0.5,0.1,1,0.1,1.4,0.2c0.5,0.1,0.9,0.1,1.4,0.2c0.5,0.1,1,0.2,1.5,0.3c0.6,0.1,1.3,0.3,1.9,0.4
			c0.3,0.1,0.7,0.2,1.1,0.3c-0.5,0.2-0.9,0.3-1.4,0.5c-1.5,0.5-3,1-4.6,1.6c-0.6,0.2-1.3,0.4-1.9,0.6c-0.6,0.2-1.1,0.6-1.2,1.4
			L39.5,24.5z M3.5,18c0.2-0.3,0.4-0.5,0.7-0.8l-0.7-0.1l0.7-0.7l-0.7-0.1L4,15.8c0.4-0.3,0.8-0.6,1.2-0.8c0.3-0.2,0.7-0.4,1.1-0.5
			c0.7-0.3,1.3-0.5,2-0.7c1.1-0.3,2.2-0.6,3.3-0.8c0.7-0.2,1.4-0.3,2-0.4c0.5-0.1,1-0.1,1.5-0.2c0.6-0.1,1.2-0.2,1.7-0.2
			c0.5,0,0.9-0.1,1.4-0.1c0.5,0,1-0.1,1.5-0.2l0.6,0c0.5,0,1.1-0.1,1.6-0.1c0.5,0,1,0,1.5-0.1c0.6,0,1.3-0.1,1.9-0.1
			c0.6,0,1.3,0,1.9,0c1.5,0,3,0,4.4,0c0.6,0,1.2,0,1.9,0c0.4,0,0.8,0,1.2,0c0.6,0,1.2,0,1.8,0.1c0.6,0,1.2,0.1,1.8,0.1
			c0.7,0.1,1.4,0.1,2.1,0.2c0.3,0,0.7,0,1,0.1c0.5,0,1,0.1,1.5,0.2c0.4,0,0.8,0.1,1.2,0.2c0.5,0.1,0.9,0.1,1.4,0.2
			c0.6,0.1,1.2,0.2,1.8,0.3c0.7,0.2,1.4,0.3,2.2,0.5c1.1,0.3,2.1,0.6,3.1,1.1c0.6,0.3,1.2,0.6,1.7,1.1c0.2,0.2,0.4,0.5,0.6,0.8
			l-0.6,0.1l0.7,0.7l-0.7,0.1l0.7,0.8L54,18.2c0.3,0.3,0.5,0.5,0.8,0.8c-0.3,0-0.5,0-0.8,0.1c0.3,0.3,0.5,0.6,0.8,0.9
			c-0.3,0-0.6,0-0.9,0c0.3,0.4,0.6,0.7,0.9,1.1c-0.3,0-0.6-0.1-1-0.1c0.2,0.3,0.4,0.6,0.6,0.8l0,0l-0.5-0.3c-0.3-0.2-0.6-0.4-1-0.6
			c-0.4-0.2-0.9-0.4-1.3-0.6c-0.9-0.3-1.8-0.6-2.8-0.9c-0.6-0.2-1.2-0.3-1.8-0.5c-0.6-0.1-1.2-0.2-1.8-0.3c-0.5-0.1-1-0.2-1.5-0.3
			c-0.4-0.1-0.8-0.1-1.3-0.2c-0.4,0-0.8-0.1-1.2-0.2c-0.3,0-0.6-0.1-0.9-0.1c-0.5,0-1.1-0.1-1.6-0.2l-0.6,0c-0.7,0-1.4-0.1-2.1-0.1
			c-0.5,0-0.9-0.1-1.4-0.1c-0.5,0-1.1,0-1.6,0c-0.6,0-1.3,0-1.9,0c-0.7,0-1.4,0-2,0c-0.8,0-1.6,0-2.3,0c-0.4,0-0.9,0-1.3,0
			c-0.9,0-1.7,0.1-2.6,0.1c-0.6,0-1.1,0.1-1.7,0.1c-0.5,0-1,0.1-1.5,0.1c-0.6,0.1-1.1,0.1-1.7,0.2c-0.5,0.1-1,0.1-1.5,0.2
			c-0.4,0-0.8,0.1-1.3,0.2c-0.4,0.1-0.7,0.1-1.1,0.2c-0.6,0.1-1.2,0.2-1.8,0.3c-0.8,0.2-1.6,0.3-2.4,0.5c-1,0.3-1.9,0.6-2.8,0.9
			c-0.7,0.3-1.4,0.6-2.1,1c-0.4,0.2-0.7,0.5-1,0.7l-0.1,0c0.3-0.4,0.5-0.8,0.7-1.2c-0.3,0.1-0.6,0.1-1,0.2c0.3-0.4,0.6-0.7,0.9-1.1
			c-0.3,0-0.6,0-0.9,0c0.3-0.3,0.5-0.6,0.8-0.9C4,19,3.7,19,3.5,19c0.3-0.3,0.5-0.5,0.8-0.8L3.5,18z M27.7,9.6h0.6V6.7h-2.8v0.5
			h-1.2V4.8h1.1v0.5h2.8V2.4h-0.6V1.2h2.5v1.1h-0.6v2.9h2.8V4.8h1.2v2.4h-1.2V6.6h-2.8v2.9h0.6v1.1h-2.5L27.7,9.6L27.7,9.6z
			 M55.3,16.1c-0.3-0.5-0.7-1-1.2-1.3c-0.5-0.4-1.1-0.7-1.7-1c-0.7-0.3-1.4-0.6-2.1-0.8c-0.7-0.2-1.4-0.4-2.2-0.6
			c-0.8-0.2-1.6-0.3-2.3-0.5c-0.6-0.1-1.2-0.2-1.8-0.3c-0.4-0.1-0.9-0.1-1.3-0.2c-0.5-0.1-1-0.1-1.5-0.2c-0.3,0-0.6-0.1-0.9-0.1
			c-0.6-0.1-1.2-0.1-1.7-0.2l-0.6,0c-0.6,0-1.1-0.1-1.7-0.1c-0.6,0-1.3-0.1-1.9-0.1c-0.4,0-0.8,0-1.2,0c-0.8,0-1.7,0-2.5,0V9.2h-0.7
			V7h2.2v0.5h1.8V4.4h-1.8v0.5h-2.2V2.7h0.7V0.9h-3.2v1.9H28v2.2h-2.1V4.5H24v3.1h1.8V7H28v2.2h-0.6v1.5l-0.1,0c-0.7,0-1.4,0-2.1,0
			c-0.7,0-1.4,0-2,0.1c-0.5,0-0.9,0-1.4,0.1c-0.6,0-1.3,0.1-1.9,0.2c-0.4,0-0.8,0-1.2,0.1c-0.6,0.1-1.1,0.1-1.7,0.2
			c-0.4,0-0.8,0.1-1.2,0.1c-0.4,0-0.8,0.1-1.3,0.2c-0.5,0.1-0.9,0.2-1.4,0.2c-0.5,0.1-1,0.2-1.4,0.2c-0.6,0.1-1.2,0.3-1.8,0.4
			c-0.8,0.2-1.5,0.4-2.2,0.6c-1,0.3-1.9,0.7-2.8,1.2c-0.7,0.4-1.4,0.9-1.9,1.6c-0.2,0.3-0.3,0.5-0.4,0.8l-0.1,0.1v7.6L3,25.1
			c0.3,0.3,0.7,0.6,1.2,0.7c0.3,0.1,0.6,0.2,0.9,0.3c0.7,0.2,1.4,0.5,2.1,0.7c1.3,0.4,2.6,0.9,3.9,1.3l-0.7,0.4
			c-0.5,0.3-1.1,0.5-1.6,0.8c-0.5,0.3-1.1,0.5-1.5,0.9c-0.3,0.3-0.4,0.6-0.6,1l0,0.3c0,2.4,0,4.8,0,7.1c0,0.4,0.1,0.9,0.5,1.2
			c0.4,0.3,0.9,0.7,1.3,1.1c0.3,0.3,0.6,0.5,0.9,0.8c-2,1.3-4,2.7-6.1,4.1c0.4,0.1,0.7,0.3,1,0.4c1,0.4,2,0.7,3.1,1.1l0.1,0.2V52
			c1.2-0.9,2.4-1.7,3.7-2.6v0.3c0,6,0,12,0,18c0,0.6,0.1,1.1,0.2,1.7c0.1,0.5,0.3,0.9,0.4,1.3c0.2,0.5,0.5,0.9,0.8,1.3
			c0.3,0.3,0.7,0.7,1.1,1c0.5,0.3,1.1,0.6,1.7,0.7c0.7,0.2,1.4,0.2,2.1,0.2c2.3,0,4.6,0,7,0c0.7,0,1.3,0.2,1.9,0.4
			c0.8,0.3,1.6,0.8,2.3,1.3l0.4,0.4h0.4l0.4-0.4c0.8-0.7,1.7-1.2,2.7-1.5c0.3-0.1,0.7-0.1,1-0.2c2.7-0.2,5.3,0,7.9-0.1
			c0.6,0,1.3-0.2,1.9-0.4c0.6-0.2,1.2-0.5,1.7-0.9c0.5-0.4,0.9-0.9,1.2-1.5c0.3-0.7,0.6-1.5,0.6-2.3c0-0.5,0.1-1.1,0.1-1.6
			c0-5.8,0-11.7,0-17.6v-0.3c1.2,0.9,2.5,1.7,3.7,2.6v-0.5v-4l0.1-0.2c1.2-0.4,2.4-0.9,3.6-1.3l0.5-0.2l-0.7-0.5
			c-0.7-0.5-1.5-1-2.2-1.4c-0.5-0.3-1.1-0.7-1.6-1c-0.3-0.2-0.6-0.4-0.8-0.6l-0.6-0.3l0-0.4l0.5-0.4c0.3-0.2,0.6-0.4,0.8-0.7
			c0.3-0.3,0.6-0.5,0.9-0.8l0.3-0.6c0-2.4,0-4.9,0-7.4c0-0.8-0.4-1.3-1.1-1.7c-0.5-0.3-1-0.5-1.5-0.8c-0.6-0.3-1.2-0.6-1.9-1
			l0.7-0.2c0.8-0.2,1.5-0.5,2.3-0.7c0.7-0.2,1.4-0.5,2-0.7c0.6-0.2,1.2-0.4,1.8-0.6c0.3-0.1,0.6-0.3,0.9-0.6
			c0.4-0.3,0.7-0.7,0.9-1.1v-7.2L55.3,16.1z"/>
		<path class="st5" d="M25,2.5h0.5V2H26v0.5h0.4V3H26v0.5h-0.6V3H25C25,3,25,2.5,25,2.5z M25.2,1.7v0.5h-0.4v1.2h0.4v0.5h1.1V3.3
			h0.5V2.1h-0.5V1.7L25.2,1.7L25.2,1.7z"/>
		<path class="st5" d="M25,8.8h0.5V8.3H26v0.5h0.4v0.5H26v0.5h-0.6V9.3H25V8.8z M25.1,8v0.5h-0.4v1.2h0.4v0.5h1.1V9.6h0.5V8.5h-0.5
			V8H25.1z"/>
		<path class="st5" d="M31.5,8.8h0.4V8.3h0.5v0.5h0.5v0.6h-0.4v0.5H32V9.3h-0.4C31.5,9.3,31.5,8.8,31.5,8.8z M31.7,8v0.5h-0.4v1.2
			h0.5v0.5h1.1V9.6h0.5V8.4h-0.5V8H31.7z"/>
		<path class="st5" d="M31.4,2.5h0.5V1.9h0.5v0.5h0.5V3h-0.4v0.5h-0.5V3h-0.5L31.4,2.5L31.4,2.5z M31.6,1.7v0.5h-0.4v1.2h0.4v0.5
			h1.1V3.3h0.5V2.1h-0.5V1.6L31.6,1.7L31.6,1.7z"/>
		<path class="st5" d="M43.7,34.4c-0.3,0.3-0.6,0.6-0.9,0.9l-0.7-0.8h-0.3l-0.5,0.6c-0.2,0.3-0.2,0.3,0,0.5l0.7,0.7
			c-0.3,0.3-0.5,0.6-0.8,0.8v0.2c0.3,0.3,0.5,0.6,0.8,0.9c0.3-0.3,0.6-0.6,0.9-0.9c0.3,0.3,0.6,0.6,0.9,0.8c0.3-0.3,0.6-0.6,0.9-0.9
			c-0.3-0.3-0.6-0.6-1-0.9c0.3-0.3,0.6-0.6,0.9-0.9C44.4,35,44.1,34.7,43.7,34.4"/>
		<path class="st5" d="M16.9,67.1c-0.3,0.3-0.7,0.6-1,0.8c-0.2-0.2-0.5-0.5-0.8-0.8l-0.3,0c-0.3,0.3-0.5,0.6-0.8,0.9
			c0.3,0.3,0.7,0.5,1,0.8c-0.3,0.3-0.6,0.6-0.8,0.9l0,0.2c0.3,0.3,0.6,0.5,0.9,0.8c0.2-0.2,0.5-0.5,0.7-0.7h0.3
			c0.2,0.3,0.5,0.5,0.8,0.8c0.3-0.3,0.6-0.6,0.9-0.9c-0.3-0.3-0.6-0.6-0.9-0.9c0.3-0.3,0.6-0.6,0.9-0.9
			C17.4,67.7,17.1,67.3,16.9,67.1"/>
		<path class="st5" d="M42.9,68.7c0.3-0.3,0.7-0.5,1-0.8l0-0.1c-0.3-0.3-0.6-0.5-1-0.8l0-0.1l-0.1,0.1l-0.6,0.7l-0.2,0
			c-0.3-0.3-0.6-0.5-0.8-0.8c-0.3,0.3-0.6,0.6-0.9,0.9c0.2,0.3,0.5,0.5,0.8,0.8v0.3c-0.3,0.3-0.5,0.5-0.8,0.8
			c0.3,0.3,0.6,0.6,0.9,0.9c0.3-0.3,0.6-0.6,0.9-0.9c0.3,0.3,0.6,0.6,0.9,0.9l0.4-0.5l0.5-0.5c-0.3-0.3-0.7-0.5-1-0.8L42.9,68.7z"/>
		<path class="st5" d="M14.4,38.2c0.2-0.2,0.5-0.5,0.7-0.8l0.3,0l0.7,0.7c0.3-0.3,0.6-0.6,0.9-0.9c-0.3-0.3-0.6-0.6-0.9-0.9
			c0.3-0.3,0.6-0.6,0.9-0.9c-0.3-0.3-0.6-0.6-1-1c-0.3,0.3-0.6,0.6-0.8,1c-0.3-0.3-0.6-0.6-0.8-0.8c-0.3,0.3-0.7,0.5-1,0.8l0,0.1
			c0.3,0.3,0.7,0.5,1,0.8c-0.3,0.3-0.6,0.7-1,1C13.7,37.6,14,37.9,14.4,38.2"/>
		<path class="st5" d="M44.4,47.3l-0.6,0.1l-0.2-0.6c0.3,0,0.5,0,0.8,0l0.2,0.1L44.4,47.3z M44.7,46L44.7,46l-0.5,0.2
			c-0.4,0-0.9,0-1.3,0L42.5,46v1c0.2-0.3,0.5-0.3,1.1-0.2l-0.1,0.1c-0.3,0.2-0.6,0.4-0.8,0.6l-0.1,0.1l0,0.6c0.3-0.2,0.7-0.5,1-0.7
			l0.2,0.3l0.3,0.2c0.3,0,0.5-0.1,0.6-0.4C44.8,47,44.7,46.5,44.7,46"/>
		<path class="st5" d="M42.9,52.4h0.8l-0.2,0.5L42.8,53l-0.2-0.4L42.9,52.4z M44.5,52.4l0.1,0.3l-0.8,0.1l-0.1-0.4H44.5z M42.7,53.5
			l0.8-0.1l0.2-0.3c0.1,0.4,0.5,0.5,0.8,0.3l0.2-0.5c0-0.3,0-0.7,0-1.1l0-0.1l-0.4,0.2c-0.5,0-0.9,0-1.4,0l-0.4-0.2
			c0,0.4,0,0.8,0,1.2L42.7,53.5z"/>
		<path class="st5" d="M15.7,55.4l-0.1-0.1l-0.5,0l0,0.1c0.6,0.2,0.7,0.6,0.6,1.1h-0.8c-0.1-0.4,0.2-0.4,0.4-0.6h-1
			c0.2,0.2,0.5,0.2,0.4,0.6h-0.9l0.1-0.7l0.5-0.4h-0.6v1.9C13.6,57,13.7,57,14,57c0.4,0,0.8,0,1.3,0c0.2,0,0.4,0,0.4,0.3l0,0
			C15.7,56.7,15.7,56,15.7,55.4"/>
		<path class="st5" d="M13.6,60.7c-0.1-0.3,0.2-0.6,0.5-0.5c0.3,0,0.5,0.2,0.5,0.5H13.6z M15.7,61.4v-1l-0.3,0.2h-0.6v-0.3l-0.3-0.6
			l-0.5-0.1c-0.3,0.2-0.4,0.4-0.4,0.7c0,0.4,0,0.7,0,1.1l0,0.1c0.1-0.3,0.1-0.3,0.5-0.3h1.1C15.3,61.2,15.6,61.2,15.7,61.4"/>
		<path class="st5" d="M14.1,54.3c0.3,0,0.7,0,1,0c0.2,0,0.5-0.1,0.6,0.2v-0.7c-0.1,0.3-0.3,0.3-0.5,0.3h-0.6H14
			c0.6-0.5,1.2-1,1.7-1.5l0-0.1c-0.6,0-1.2,0-1.7,0c-0.2,0-0.4,0-0.5-0.3V53l0.3-0.2c0.3,0,0.7,0,1.1,0l-0.1,0.1L14,53.5l-0.4,0.3
			l-0.1,0.8L14.1,54.3z"/>
		<path class="st5" d="M43,44c-0.2,0-0.4,0.1-0.5-0.2v1.1l0.4-0.3c0.3,0,0.7,0,1.1,0h0.6c0,0.4-0.2,0.6-0.5,0.7h0.7v-2H44l0.4,0.2
			l0.2,0.5C44.6,44,43,44,43,44z"/>
		<path class="st5" d="M13.6,44.7L13.6,44.7l0,1l0.4-0.3l0.2-0.1c0.4-0.2,0.8-0.5,1.3-0.4l0.3,0.2l0.1,0.1V44l-0.1,0.1l-0.3,0.2
			c-0.3,0-0.7,0.1-1-0.2L14.2,44c-0.2-0.2-0.6-0.2-0.7-0.6v0.7l0-0.1l0.2-0.1l0.8,0.5c-0.3,0.2-0.6,0.3-1,0.5L13.6,44.7z"/>
		<path class="st5" d="M13.6,50.7l0,0.6c0.1,0.4,0.5,0.6,0.9,0.3c0.3-0.2,0.4-0.5,0.5-0.8l0.5-0.2l0.2,0.5l-0.5,0.5l-0.2,0.1l0,0.1
			h0.8l0.1,0c-0.3-0.1-0.2-0.3-0.1-0.4l0-0.6l-0.5-0.4c-0.4,0-0.6,0.2-0.8,0.5l-0.3,0.5l-0.3,0.1L13.6,51c0-0.3,0.2-0.5,0.5-0.6
			l0.1-0.1l-0.6,0l-0.1,0v0.1L13.6,50.7z"/>
		<path class="st5" d="M42.4,58.2l0.4,0.2c0.5,0,1,0,1.5,0l0.3,0.2l0.1,0.1v-1.1l-0.1,0.1l-0.3,0.2c-0.6,0-1.2,0-1.8,0l-0.2-0.1
			l0-0.3l0.4,0.1l0-0.3l-0.4,0C42.1,57.5,42.2,57.9,42.4,58.2"/>
		<path class="st5" d="M14.9,48.3v0.6l-0.7-0.3L14.9,48.3z M13.7,48.5c0.7,0.3,1.4,0.5,2,0.9v-0.6c-0.2,0.3-0.2,0.3-0.6,0.1v-0.7
			l0.4-0.1l0.2,0.3v-1l-0.2,0.2c-0.3,0.2-0.7,0.3-1,0.4l-0.8,0.3l-0.1,0.1L13.7,48.5z"/>
		<path class="st5" d="M43.4,60.4l-0.1-0.1v-0.5c0.3,0.1,0.5,0.2,0.8,0.3L43.4,60.4z M43.2,59.7l-0.7-0.4v0.7
			c0.1-0.3,0.2-0.3,0.4-0.2l0.2,0.3v0.6l-0.5,0.2l-0.1-0.3h0v1.1l0.2-0.3c0.5-0.2,1.1-0.4,1.6-0.7l0.4-0.2l-0.2-0.1
			C44.1,60.1,43.7,59.9,43.2,59.7"/>
		<path class="st5" d="M43.3,55.5v-0.6c0.2,0.1,0.5,0.2,0.7,0.3L43.3,55.5z M42.5,54.3V55l0.4-0.3l0.3,0.4v0.2c0,0.3,0,0.3-0.4,0.4
			l-0.2-0.2h0v0.9l0,0.1l0.3-0.2c0.6-0.2,1.1-0.5,1.7-0.7l0.3-0.2c-0.5-0.2-1-0.4-1.5-0.6C43,54.6,42.7,54.6,42.5,54.3"/>
		<path class="st5" d="M43.3,49.4c0.2,0.1,0.4,0.2,0.7,0.3c-0.3,0.1-0.5,0.2-0.7,0.3V49.4z M42.7,50.3l-0.2-0.2V51l0.3-0.2
			c0.6-0.3,1.2-0.5,1.7-0.8l0.2-0.1l-0.2-0.1c-0.5-0.2-1-0.4-1.6-0.6l-0.5-0.3v0.6l0.4-0.2l0.2,0.2v0.4C43.1,50.1,43,50.2,42.7,50.3
			"/>
		<path class="st5" d="M15.2,58.2c-0.4,0-0.8,0-1.2,0c-0.2,0-0.4,0-0.5-0.3v1.2c0.2-0.4,0.2-0.3,0.5-0.4h1.1c0.4,0,0.4,0,0.5,0.3
			v-1.2C15.6,58.2,15.6,58.2,15.2,58.2"/>
		<path class="st5" d="M23,55v1.4C22.6,55.7,22.6,55.3,23,55 M23.5,53.8v1.4C23.1,54.8,23.1,54.3,23.5,53.8 M23.5,57.5
			c-0.4-0.4-0.4-0.8,0-1.4V57.5z M23.9,55.2l0.2-0.3v1.4l-0.3-0.6L23.9,55.2z M33.9,54.2L33.6,54C33.8,53.9,33.9,53.9,33.9,54.2
			 M34.2,55.2L34.2,55.2l0.3,0.6l0,0.1l-0.3,0.6V55.2z M34.8,54.1L34.8,54.1l0.3,0.6L35,55l-0.2,0.4l-0.1,0
			C34.8,55.4,34.8,54.1,34.8,54.1z M35.3,55.2c0.4,0.3,0.4,0.6,0,1.3V55.2z M34.8,57.6L34.8,57.6l-0.1-1.3l0,0l0.3,0.6L34.8,57.6z
			 M19.6,57.5c0.2-0.5,0.4-0.9,0.6-1.3l0-0.3l-0.3-0.7c0.3-0.1,0.5-0.3,0.8-0.4l0.3,0.5l0,0.2c-0.1,0.5-0.3,1.1-0.4,1.6
			c-0.2,0.6-0.3,1.3-0.5,1.9c-0.1,0.5-0.3,1,0,1.5l0,0.8l0,0.5l0.2,0.5c0.2,0.4,0.2,0.4-0.1,0.7L20,63.4c0,0.4,0,0.8,0,1.3l0,0.2
			h1.8l0-0.1l-0.6-0.4c-0.3-0.2-0.5-0.3-0.4-0.7l0-0.3l0.1-0.2c0.3-0.2,0.6-0.3,0.8-0.4c0-0.3,0.1-0.6,0.1-1
			c0.1-0.4,0.2-0.9,0.2-1.3l0.1-0.1c0.5-0.1,1-0.2,1.5-0.4c0.4-0.1,0.9-0.2,1.3-0.3l0.1-0.1c0.3-0.6,0.5-1.2,0.8-1.7l0.3-0.4
			c0.3-0.1,0.6-0.3,0.8-0.4l0.3-0.2c0.1-0.3,0.2-0.7,0.3-1c0.1-0.4,0.4-0.5,0.7-0.8v0.7c0.1,0.4,0,0.8-0.4,1.2
			c-0.4,0.4-0.7,0.9-1.4,0.9l-0.1,0l-0.1,0.1c-0.2,0.4-0.3,0.9-0.5,1.3l0.5-0.3c0.3-0.2,0.6-0.4,0.9-0.7l0.6-0.6l0.3-0.4l0.1,0
			c0,1.9,0,3.8-0.1,5.6c0,0.3-0.1,0.6-0.3,0.8c-0.3,0.5-0.9,0.7-1.4,0.9c0.2,0.2,0.5,0.3,0.8,0.4c0.3,0.1,0.6,0.1,0.9,0.1l0.1,0.2
			c0.1,0.4,0.2,0.8,0.5,1h0.3c0.3-0.2,0.4-0.5,0.5-0.9l0.1-0.3c0.8-0.1,1.5-0.2,1.7-0.5c-0.3-0.1-0.5-0.3-0.8-0.4
			c-0.6-0.3-0.9-0.8-0.9-1.5c0-1.7,0-3.5,0-5.2v-0.2l0.1,0c0.3,0.4,0.7,0.8,1.1,1.1c0.4,0.3,0.8,0.6,1.3,0.8
			c-0.1-0.4-0.3-0.8-0.4-1.2l-0.3-0.3c-0.3-0.1-0.7-0.2-0.9-0.5l-0.6-0.6l-0.3-0.5c0-0.4,0-0.8,0-1.2l0.6,0.4l0.2,0.3
			c0.1,0.4,0.3,0.8,0.4,1.1L31,57c0.3,0.1,0.5,0.3,0.8,0.4c0.3,0.1,0.5,0.3,0.6,0.6l0.1,0.3c0.2,0.4,0.4,0.7,0.5,1.1l0.4,0.3
			c0.8,0.2,1.7,0.4,2.5,0.6l0.2,0.2v0.1c0.1,0.6,0.2,1.2,0.3,1.8l0.2,0.3l0.7,0.3l0.1,0.2v0.5l-0.1,0.2l-0.6,0.4l-0.2,0.2h1.7
			c0-0.5,0-1,0-1.5L38,62.8l-0.3-0.3l0-0.2l0.3-0.6l0.1-0.7c-0.2-0.3,0-0.6,0.1-0.9c0.1-0.3,0.1-0.5,0.1-0.8l-0.1-0.3
			c-0.1-0.4-0.2-0.7-0.3-1.1c-0.1-0.3-0.2-0.7-0.3-1c-0.1-0.4-0.2-0.8-0.3-1.2l0-0.4l0.3-0.5c0.3,0.1,0.5,0.2,0.8,0.4
			c-0.2,0.3-0.3,0.6-0.4,0.9c0.2,0.4,0.4,0.9,0.6,1.3l0.2-0.5l0.3-0.7c0.1-0.3,0-0.6,0.1-1L38.9,55l-0.7-0.5L37.5,54l-0.1,0.2
			c-0.3,0.3-0.5,0.6-0.8,0.9l-0.1,0.4c0.2,0.6,0.3,1.2,0.5,1.8c0.1,0.4,0.2,0.9,0.3,1.3c0.1,0.3,0.1,0.7,0.2,1.1l-0.3-0.6l-0.5-0.6
			c-0.3-0.2-0.7-0.4-1-0.6l-0.1-0.2l0.1-0.4l0.2-0.8c0.1-0.4,0.2-0.8,0.1-1.2c-0.1-0.3-0.2-0.7-0.3-1l-0.3-0.4
			c-0.4-0.1-0.7-0.3-1.1-0.4l-0.7,0.1l-0.4,0c-0.5-0.1-0.5-0.1-0.7,0.4l0,0l0.2,0.4l0.3,0.2l0,0.4l-0.5-0.1l-0.2,0
			c-0.2,0.3-0.1,0.7,0.3,0.8l0.3,0.1l0.2,0.2v0.4l-0.5,0.3L32,56.3l-0.2-0.1l-0.7-0.8c-0.4-0.4-0.7-0.8-1.1-1.1L29.9,54
			c0-0.9,0-1.8,0-2.7l0.1-0.4c0.1-0.4,0.4-0.8,0.8-1l0.8-0.4c-0.5,0-1,0-1.6,0.2c0-0.6,0.3-1.1,0.7-1.6c-0.7,0.2-1.1,0.8-1.5,1.3
			c-0.2-0.3-0.4-0.6-0.7-0.8c-0.2-0.3-0.6-0.4-0.9-0.6c0.5,0.5,0.8,1,0.8,1.6c-0.5-0.2-1-0.2-1.6-0.2c0.5,0.1,0.9,0.4,1.2,0.8
			c0.3,0.3,0.4,0.6,0.4,1c0,0.9,0,1.8,0,2.8l-0.1,0.2c-0.4,0.5-0.9,1-1.4,1.4l-0.4,0.4l-0.3,0.2l-0.5,0.1c-0.4,0.2-0.7-0.3-0.6-0.6
			l0.2-0.2l0.4-0.1l0.2-0.1v-0.6l-0.3-0.1l-0.1,0.1l-0.3,0.1l-0.2-0.3l0.3-0.3c0.3-0.1,0.3-0.1,0.3-0.4v-0.1c0-0.4-0.2-0.5-0.5-0.4
			l-0.7-0.1l-0.5,0c-0.5,0.2-0.9,0.3-1.4,0.5l-0.1,0.2l-0.1,0.4c-0.1,0.3-0.1,0.6-0.2,0.9l-0.1,0.4c0,0.4,0.1,0.7,0.2,1.1
			c0.1,0.3,0.2,0.6,0.2,1l-0.1,0.2c-0.4,0.2-0.8,0.5-1.1,0.7l-0.2,0.2c-0.2,0.3-0.3,0.6-0.5,0.9l0-0.1c0.2-0.7,0.3-1.4,0.5-2.1
			s0.3-1.4,0.5-2.1l0-0.2c-0.3-0.4-0.6-0.8-0.9-1.2l-0.2,0c-0.4,0.3-0.9,0.6-1.3,0.9l-0.2,0.2c0,0.5-0.1,1.1,0.2,1.6
			C19.4,57,19.5,57.2,19.6,57.5"/>
		<path class="st5" d="M23.1,63.4l0.1-0.2c0.3-0.1,0.6-0.3,0.8-0.4c0-0.3-0.1-0.6-0.2-0.9c0-0.3-0.2-0.5-0.5-0.6
			c-0.3-0.1-0.5-0.3-0.8-0.4c-0.1,1.3-0.3,2.6-0.4,3.9h2l-0.6-0.4C23.1,64.2,23,63.8,23.1,63.4"/>
		<path class="st5" d="M34.5,61.3l-0.1,0.1c-0.1,0.4-0.2,0.8-0.2,1.2l0.6,0.3c0.4,0.2,0.5,0.3,0.4,0.8L35,64
			c-0.3,0.2-0.5,0.4-0.8,0.6h1.9c-0.2-1.3-0.3-2.5-0.5-3.8C35.2,61,34.9,61.2,34.5,61.3"/>
		<path class="st5" d="M29,25.6c0.2-0.4,0.3-0.8,0.5-1.2l0.1-0.4l-0.2-0.4c-0.1-0.3-0.2-0.5-0.3-0.8c-0.2,0.4-0.3,0.8-0.5,1.2l0,0.4
			C28.7,24.8,28.8,25.2,29,25.6"/>
		<path class="st5" d="M30.5,25.5c0.1-0.3,0.2-0.6,0.3-0.8c0.2-0.3,0.2-0.6,0-1c-0.2-0.3-0.2-0.5-0.4-0.8c-0.2,0.4-0.3,0.8-0.5,1.1
			l0,0.4C30.2,24.8,30.4,25.1,30.5,25.5"/>
		<path class="st5" d="M27.5,25.4L27.5,25.4c0.2-0.4,0.3-0.7,0.4-1v-0.6l-0.1-0.2l-0.3-0.8c-0.1,0.3-0.2,0.5-0.3,0.8l-0.1,0.7
			C27.2,24.8,27.3,25.1,27.5,25.4"/>
		<path class="st5" d="M31.9,25.2c0.1-0.3,0.3-0.6,0.4-0.8l0.1-0.3c-0.1-0.3-0.3-0.7-0.4-1c-0.1,0.3-0.2,0.6-0.3,0.8l-0.1,0.3
			C31.6,24.5,31.7,24.9,31.9,25.2"/>
		<path class="st5" d="M26.2,25.2c0.1-0.3,0.3-0.6,0.4-0.9l0-0.3c-0.1-0.3-0.2-0.5-0.4-0.8c-0.1,0.3-0.3,0.6-0.4,0.9v0.2
			C25.9,24.6,26,24.9,26.2,25.2"/>
	</g>
</g>
<g id="Capa_3" class="st0">
	<rect x="-36.2" y="122.6" class="st6" width="290" height="150"/>
</g>
</svg>
